<svg xmlns="http://www.w3.org/2000/svg" xmlns:xlink="http://www.w3.org/1999/xlink" width="1080" zoomAndPan="magnify" viewBox="0 0 810 809.999993" height="1080" preserveAspectRatio="xMidYMid meet" version="1.0"><defs><g/><clipPath id="id1"><path d="M 187 182 L 686 182 L 686 681 L 187 681 Z M 187 182 " clip-rule="nonzero"/></clipPath><clipPath id="id2"><path d="M 575.367188 108.054688 L 759.394531 570.382812 L 297.066406 754.410156 L 113.039062 292.082031 Z M 575.367188 108.054688 " clip-rule="nonzero"/></clipPath><clipPath id="id3"><path d="M 211.765625 193.441406 L 708.386719 193.441406 L 708.386719 690.0625 L 211.765625 690.0625 Z M 211.765625 193.441406 " clip-rule="nonzero"/></clipPath><clipPath id="id4"><path d="M 239.875 221.550781 L 679.882812 221.550781 L 679.882812 661.558594 L 239.875 661.558594 Z M 239.875 221.550781 " clip-rule="nonzero"/></clipPath></defs><rect x="-81" width="972" fill="#ffffff" y="-80.999999" height="971.999992" fill-opacity="1"/><rect x="-81" width="972" fill="#ffffff" y="-80.999999" height="971.999992" fill-opacity="1"/><rect x="-81" width="972" fill="#ffffff" y="-80.999999" height="971.999992" fill-opacity="1"/><rect x="-81" width="972" fill="#ffffff" y="-80.999999" height="971.999992" fill-opacity="1"/><g clip-path="url(#id1)"><g clip-path="url(#id2)"><path fill="#fc164b" d="M 271.953125 244.441406 C 274.820312 241.835938 277.980469 239.359375 280.929688 236.964844 L 684.351562 410.664062 C 684.640625 414.453125 685.011719 418.453125 685.089844 422.328125 Z M 678.308594 374.03125 C 677.347656 369.777344 676.09375 365.394531 674.921875 361.226562 L 323.03125 209.714844 C 319.199219 211.730469 315.152344 213.828125 311.402344 216.050781 Z M 678.625 487.609375 C 679.429688 484.117188 680.234375 480.625 680.832031 477.214844 L 234.710938 285.128906 C 232.644531 287.90625 230.660156 290.890625 228.675781 293.875 Z M 684.800781 444.890625 C 685.015625 441.144531 685.234375 437.398438 685.238281 433.734375 L 263.5625 252.175781 C 260.90625 254.695312 258.332031 257.429688 255.761719 260.160156 Z M 682.449219 466.566406 C 682.960938 462.945312 683.472656 459.328125 683.773438 455.792969 L 247.957031 268.144531 C 245.597656 270.792969 243.320312 273.652344 241.039062 276.511719 Z M 611.074219 254.148438 C 602.707031 246.011719 593.796875 238.332031 584.421875 231.328125 L 479.589844 186.191406 C 467.976562 183.984375 456.273438 182.785156 444.699219 182.515625 Z M 665.410156 334.269531 L 349.152344 198.097656 C 344.519531 199.941406 340.09375 201.703125 335.546875 203.757812 L 670.566406 347.832031 C 669.015625 343.324219 667.171875 338.691406 665.410156 334.269531 Z M 529.390625 661.933594 L 204.589844 522.089844 C 206.4375 526.722656 208.363281 531.566406 210.628906 536.03125 L 515.109375 667.132812 C 519.828125 665.496094 524.757812 663.78125 529.390625 661.933594 Z M 672.824219 507.972656 C 673.921875 504.609375 675.023438 501.242188 675.914062 497.960938 L 223.019531 302.960938 C 221.246094 305.863281 219.558594 308.972656 217.871094 312.085938 Z M 658.785156 320.070312 C 656.265625 314.972656 653.621094 310.167969 650.683594 305.238281 L 380.363281 188.847656 C 374.761719 190.101562 369.453125 191.480469 364.019531 193.15625 Z M 640.816406 289.644531 C 636.828125 283.914062 632.628906 278.265625 628.007812 272.785156 L 419.4375 182.808594 C 412.367188 183.429688 405.503906 183.964844 398.386719 185.089844 Z M 682.941406 398.539062 C 682.273438 394.410156 681.691406 390.496094 681.027344 386.367188 L 300.574219 222.558594 C 297.117188 224.910156 293.871094 227.179688 290.414062 229.53125 Z M 482.429688 675.75 C 488.324219 674.621094 493.925781 673.367188 499.652344 671.820312 L 217.847656 550.484375 C 220.660156 555.707031 223.679688 560.851562 226.828125 565.695312 Z M 542.492188 656.230469 C 546.621094 654.34375 550.664062 652.246094 554.710938 650.148438 L 195.964844 495.511719 C 197.21875 499.890625 198.476562 504.269531 199.941406 508.566406 Z M 565.960938 643.472656 C 569.5 641.332031 572.957031 638.980469 576.414062 636.628906 L 190.578125 470.328125 C 191.242188 474.453125 191.910156 478.578125 192.785156 482.621094 Z M 665.675781 527.410156 C 667.070312 524.171875 668.253906 521.015625 669.648438 517.777344 L 213.222656 321.257812 C 211.746094 324.285156 210.351562 327.523438 208.957031 330.761719 Z M 355.519531 666.484375 C 373.613281 672.703125 391.789062 676.691406 410.140625 678.65625 L 274.390625 620.207031 C 288.433594 632.1875 303.824219 642.652344 320.773438 651.523438 Z M 586.277344 629.53125 C 589.4375 627.054688 592.386719 624.660156 595.550781 622.179688 L 188.007812 446.707031 C 188.378906 450.707031 188.667969 454.496094 189.039062 458.496094 Z M 439.523438 680.136719 C 447.269531 679.984375 454.933594 679.617188 462.636719 678.746094 L 238.253906 582.132812 C 242.914062 588.328125 247.914062 594.148438 253.125 599.882812 Z M 646.332031 564.636719 C 648.105469 561.734375 650.089844 558.746094 651.777344 555.636719 L 197.917969 360.042969 C 196.816406 363.410156 196.011719 366.902344 195.121094 370.183594 Z M 604.234375 614.574219 C 607.101562 611.96875 609.757812 609.449219 612.332031 606.71875 L 187.414062 423.761719 C 187.195312 427.507812 187.273438 431.382812 187.269531 435.042969 Z M 656.84375 546.296875 C 658.535156 543.1875 660.011719 540.15625 661.40625 536.917969 L 204.6875 340.269531 C 203.292969 343.507812 202.191406 346.875 201.007812 350.03125 Z M 634.179688 581.917969 C 636.246094 579.140625 638.523438 576.28125 640.507812 573.296875 L 192.621094 380.453125 C 191.816406 383.945312 191.222656 387.355469 190.710938 390.972656 Z M 620.132812 598.730469 C 622.492188 596.082031 625.066406 593.351562 627.34375 590.492188 L 189.175781 401.832031 C 188.664062 405.453125 188.363281 408.988281 188.148438 412.734375 Z M 620.132812 598.730469 " fill-opacity="1" fill-rule="nonzero"/></g></g><g clip-path="url(#id3)"><path fill="#fc164b" d="M 460.078125 193.441406 C 322.9375 193.441406 211.765625 304.613281 211.765625 441.753906 C 211.765625 578.890625 322.9375 690.0625 460.078125 690.0625 C 597.214844 690.0625 708.386719 578.890625 708.386719 441.753906 C 708.386719 304.613281 597.214844 193.441406 460.078125 193.441406 " fill-opacity="1" fill-rule="nonzero"/></g><g clip-path="url(#id4)"><path fill="#ffffff" d="M 459.878906 661.558594 C 338.605469 661.558594 239.875 562.828125 239.875 441.554688 C 239.875 320.28125 338.605469 221.550781 459.878906 221.550781 C 581.152344 221.550781 679.882812 320.28125 679.882812 441.554688 C 679.882812 562.828125 581.152344 661.558594 459.878906 661.558594 Z M 459.878906 224.800781 C 340.339844 224.800781 243.125 322.015625 243.125 441.554688 C 243.125 561.09375 340.339844 658.308594 459.878906 658.308594 C 579.417969 658.308594 676.632812 561.09375 676.632812 441.554688 C 676.632812 322.015625 579.417969 224.800781 459.878906 224.800781 Z M 459.878906 224.800781 " fill-opacity="1" fill-rule="nonzero"/></g><g fill="#ff1616" fill-opacity="1"><g transform="translate(295.344229, 668.150233)"><g><path d="M -12.734375 -9.34375 L -7.171875 -5.25 L -45.109375 46.5 L -57.125 37.6875 C -61.257812 34.65625 -63.679688 31.367188 -64.390625 27.828125 C -65.109375 24.285156 -64.179688 20.757812 -61.609375 17.25 L -51.6875 3.71875 C -49.082031 0.164062 -46.007812 -1.800781 -42.46875 -2.1875 C -38.925781 -2.570312 -35.054688 -1.222656 -30.859375 1.859375 L -24.40625 6.578125 Z M -46.109375 7.796875 L -56.03125 21.328125 C -57.507812 23.347656 -58.046875 25.363281 -57.640625 27.375 C -57.242188 29.382812 -55.90625 31.226562 -53.625 32.90625 L -47.171875 37.625 L -27.90625 11.359375 L -34.359375 6.640625 C -39.078125 3.171875 -42.992188 3.554688 -46.109375 7.796875 Z M -46.109375 7.796875 "/></g></g></g><g fill="#ff1616" fill-opacity="1"><g transform="translate(259.506551, 642.119348)"><g><path d="M -11.71875 -12 L -6.90625 -7.0625 L -52.8125 37.78125 L -63.21875 27.125 C -66.8125 23.445312 -68.664062 19.800781 -68.78125 16.1875 C -68.894531 12.582031 -67.398438 9.257812 -64.296875 6.21875 L -54.40625 -3.421875 C -49.601562 -8.117188 -44.515625 -9.039062 -39.140625 -6.1875 L -30.703125 -31.421875 L -25.390625 -25.984375 L -33.546875 -1.859375 L -27.953125 3.859375 Z M -49.578125 1.515625 L -59.46875 11.15625 C -61.25 12.90625 -62.109375 14.804688 -62.046875 16.859375 C -61.984375 18.921875 -60.960938 20.960938 -58.984375 22.984375 L -53.390625 28.703125 L -32.1875 8 L -37.78125 2.28125 C -41.875 -1.914062 -45.804688 -2.171875 -49.578125 1.515625 Z M -49.578125 1.515625 "/></g></g></g><g fill="#ff1616" fill-opacity="1"><g transform="translate(226.83227, 608.995123)"><g><path d="M -66.46875 -5.28125 L -33.90625 -27.609375 C -30.269531 -30.109375 -26.671875 -30.882812 -23.109375 -29.9375 C -19.546875 -28.988281 -16.191406 -26.222656 -13.046875 -21.640625 C -9.898438 -17.054688 -8.515625 -12.914062 -8.890625 -9.21875 C -9.273438 -5.53125 -11.285156 -2.4375 -14.921875 0.0625 L -47.484375 22.390625 C -51.117188 24.890625 -54.71875 25.660156 -58.28125 24.703125 C -61.84375 23.753906 -65.195312 20.988281 -68.34375 16.40625 C -71.488281 11.820312 -72.867188 7.6875 -72.484375 4 C -72.109375 0.3125 -70.101562 -2.78125 -66.46875 -5.28125 Z M -30 -21.921875 L -62.5625 0.40625 C -66.90625 3.382812 -67.210938 7.585938 -63.484375 13.015625 C -59.765625 18.453125 -55.734375 19.679688 -51.390625 16.703125 L -18.828125 -5.625 C -14.484375 -8.601562 -14.171875 -12.804688 -17.890625 -18.234375 C -21.617188 -23.671875 -25.65625 -24.898438 -30 -21.921875 Z M -30 -21.921875 "/></g></g></g><g fill="#ff1616" fill-opacity="1"><g transform="translate(199.106788, 568.709464)"><g><path d="M -33.78125 -9.921875 L -39.171875 -7.46875 L -46.59375 -23.828125 L -16.9375 -37.296875 L -15.71875 -34.59375 L -20.40625 -29.65625 C -17.675781 -29.375 -15.203125 -28.503906 -12.984375 -27.046875 C -10.773438 -25.597656 -9.128906 -23.675781 -8.046875 -21.28125 C -4.097656 -12.59375 -6.316406 -6.34375 -14.703125 -2.53125 L -50.65625 13.796875 C -54.664062 15.617188 -58.320312 15.796875 -61.625 14.328125 C -64.925781 12.859375 -67.691406 9.664062 -69.921875 4.75 C -72.160156 -0.15625 -72.753906 -4.359375 -71.703125 -7.859375 C -70.660156 -11.367188 -68.132812 -14.035156 -64.125 -15.859375 L -59.171875 -18.109375 L -56.3125 -11.828125 L -61.265625 -9.578125 C -66.054688 -7.398438 -67.160156 -3.460938 -64.578125 2.234375 C -61.992188 7.929688 -58.304688 9.691406 -53.515625 7.515625 L -17.5625 -8.8125 C -15.289062 -9.851562 -13.738281 -11.140625 -12.90625 -12.671875 C -12.082031 -14.203125 -12.25 -16.238281 -13.40625 -18.78125 C -14.5625 -21.332031 -16.65625 -23.238281 -19.6875 -24.5 C -22.71875 -25.769531 -25.191406 -25.96875 -27.109375 -25.09375 L -38.34375 -20 Z M -33.78125 -9.921875 "/></g></g></g><g fill="#ff1616" fill-opacity="1"><g transform="translate(179.189333, 524.99141)"><g><path d="M -4.234375 -16.234375 L -2.5 -9.546875 L -64.59375 6.671875 L -68.359375 -7.765625 C -69.648438 -12.734375 -69.453125 -16.8125 -67.765625 -20 C -66.078125 -23.1875 -63.128906 -25.332031 -58.921875 -26.4375 L -45.5625 -29.921875 C -39.0625 -31.617188 -34.191406 -29.898438 -30.953125 -24.765625 L -11.109375 -42.515625 L -9.171875 -35.15625 L -28.234375 -18.25 L -26.203125 -10.5 Z M -43.828125 -23.234375 L -57.1875 -19.75 C -59.613281 -19.113281 -61.300781 -17.890625 -62.25 -16.078125 C -63.207031 -14.265625 -63.332031 -11.992188 -62.625 -9.265625 L -60.59375 -1.515625 L -31.9375 -9 L -33.96875 -16.75 C -35.445312 -22.40625 -38.734375 -24.566406 -43.828125 -23.234375 Z M -43.828125 -23.234375 "/></g></g></g><g fill="#ff1616" fill-opacity="1"><g transform="translate(167.442557, 479.686683)"><g><path d="M -3.640625 -38.828125 L -0.921875 -9.828125 L -64.8125 -3.84375 L -67.4375 -31.84375 L -61.546875 -32.390625 L -59.5625 -11.265625 L -36.9375 -13.390625 L -38.546875 -30.59375 L -32.65625 -31.140625 L -31.046875 -13.9375 L -7.453125 -16.15625 L -9.53125 -38.28125 Z M -3.640625 -38.828125 "/></g></g></g><g fill="#ff1616" fill-opacity="1"><g transform="translate(163.138652, 437.072291)"><g><path d="M -9.390625 -42.03125 C -0.191406 -41.375 4.007812 -35.5 3.21875 -24.40625 C 2.4375 -13.3125 -2.550781 -8.09375 -11.75 -8.75 L -20.125 -9.34375 L -19.640625 -16.25 L -10.859375 -15.625 C -8.503906 -15.457031 -6.609375 -16.144531 -5.171875 -17.6875 C -3.742188 -19.238281 -2.914062 -21.617188 -2.6875 -24.828125 C -2.457031 -28.046875 -2.941406 -30.519531 -4.140625 -32.25 C -5.347656 -33.988281 -7.082031 -34.9375 -9.34375 -35.09375 C -11.613281 -35.257812 -13.4375 -35.144531 -14.8125 -34.75 C -16.1875 -34.351562 -17.6875 -33.453125 -19.3125 -32.046875 L -37.46875 -15.921875 C -39.644531 -14.023438 -41.726562 -12.765625 -43.71875 -12.140625 C -45.707031 -11.523438 -48.179688 -11.320312 -51.140625 -11.53125 C -55.535156 -11.84375 -58.832031 -13.445312 -61.03125 -16.34375 C -63.226562 -19.238281 -64.132812 -23.445312 -63.75 -28.96875 C -63 -39.539062 -58.035156 -44.5 -48.859375 -43.84375 L -40.484375 -43.25 L -40.96875 -36.34375 L -49.734375 -36.96875 C -52.097656 -37.132812 -53.988281 -36.492188 -55.40625 -35.046875 C -56.820312 -33.597656 -57.640625 -31.332031 -57.859375 -28.25 C -58.078125 -25.164062 -57.585938 -22.804688 -56.390625 -21.171875 C -55.191406 -19.535156 -53.441406 -18.632812 -51.140625 -18.46875 C -48.835938 -18.3125 -47.015625 -18.410156 -45.671875 -18.765625 C -44.335938 -19.128906 -42.890625 -20.050781 -41.328125 -21.53125 L -23.140625 -37.96875 C -20.898438 -39.71875 -18.785156 -40.882812 -16.796875 -41.46875 C -14.804688 -42.050781 -12.335938 -42.238281 -9.390625 -42.03125 Z M -9.390625 -42.03125 "/></g></g></g><g fill="#ff1616" fill-opacity="1"><g transform="translate(166.395855, 389.388541)"><g><path d="M -2.046875 -43.015625 C 6.898438 -40.796875 10.035156 -34.285156 7.359375 -23.484375 C 4.679688 -12.691406 -1.128906 -8.40625 -10.078125 -10.625 L -18.21875 -12.65625 L -16.5625 -19.375 L -8.015625 -17.25 C -5.722656 -16.675781 -3.738281 -17.03125 -2.0625 -18.3125 C -0.382812 -19.59375 0.835938 -21.796875 1.609375 -24.921875 C 2.390625 -28.046875 2.335938 -30.566406 1.453125 -32.484375 C 0.578125 -34.398438 -0.957031 -35.628906 -3.15625 -36.171875 C -5.363281 -36.722656 -7.179688 -36.921875 -8.609375 -36.765625 C -10.046875 -36.617188 -11.675781 -35.992188 -13.5 -34.890625 L -34.171875 -22.125 C -36.648438 -20.632812 -38.921875 -19.753906 -40.984375 -19.484375 C -43.054688 -19.210938 -45.523438 -19.429688 -48.390625 -20.140625 C -52.671875 -21.203125 -55.644531 -23.347656 -57.3125 -26.578125 C -58.988281 -29.816406 -59.160156 -34.117188 -57.828125 -39.484375 C -55.273438 -49.765625 -49.53125 -53.796875 -40.59375 -51.578125 L -32.453125 -49.5625 L -34.125 -42.84375 L -42.640625 -44.953125 C -44.953125 -45.523438 -46.925781 -45.222656 -48.5625 -44.046875 C -50.207031 -42.867188 -51.398438 -40.773438 -52.140625 -37.765625 C -52.890625 -34.765625 -52.816406 -32.351562 -51.921875 -30.53125 C -51.023438 -28.71875 -49.457031 -27.535156 -47.21875 -26.984375 C -44.976562 -26.429688 -43.160156 -26.21875 -41.765625 -26.34375 C -40.378906 -26.46875 -38.796875 -27.125 -37.015625 -28.3125 L -16.265625 -41.375 C -13.765625 -42.71875 -11.484375 -43.503906 -9.421875 -43.734375 C -7.367188 -43.972656 -4.910156 -43.734375 -2.046875 -43.015625 Z M -2.046875 -43.015625 "/></g></g></g><g fill="#ff1616" fill-opacity="1"><g transform="translate(178.717788, 342.330919)"><g><path d="M 3.4375 -24.1875 L 8.921875 -21.953125 L 2.59375 -6.390625 L -2.890625 -8.625 L -1.03125 -13.203125 L -49.515625 -32.890625 L -51.375 -28.3125 L -56.859375 -30.546875 L -50.53125 -46.109375 L -45.046875 -43.875 L -46.90625 -39.296875 L 1.578125 -19.609375 Z M 3.4375 -24.1875 "/></g></g></g><g fill="#ff1616" fill-opacity="1"><g transform="translate(189.543613, 314.068264)"><g><path d="M 14.453125 -24.9375 L 9.25 -15.96875 L -53.53125 -35.59375 L -50.0625 -41.5625 L 5.265625 -24.21875 L -37.25 -63.6875 L -33.78125 -69.671875 Z M 14.453125 -24.9375 "/></g></g></g><g fill="#ff1616" fill-opacity="1"><g transform="translate(212.573126, 274.135886)"><g><path d="M -37.65625 -55.140625 L -31.03125 -63.140625 L 27.65625 -33.375 L 23.234375 -28.046875 L 9.6875 -34.921875 L -2.328125 -20.40625 L 6.921875 -8.359375 L 2.515625 -3.046875 Z M -28.4375 -54.1875 L -6.078125 -25.171875 L 4.25 -37.640625 Z M -28.4375 -54.1875 "/></g></g></g><g fill="#ff1616" fill-opacity="1"><g transform="translate(243.30545, 238.251036)"><g/></g></g><g fill="#ff1616" fill-opacity="1"><g transform="translate(260.814641, 221.932912)"><g/></g></g><g fill="#ff1616" fill-opacity="1"><g transform="translate(278.442735, 207.281864)"><g><path d="M 33.359375 -20.203125 L 8.453125 -5.109375 L -24.796875 -60 L -0.75 -74.578125 L 2.328125 -69.515625 L -15.8125 -58.515625 L -4.046875 -39.078125 L 10.734375 -48.03125 L 13.796875 -42.96875 L -0.984375 -34.015625 L 11.296875 -13.75 L 30.296875 -25.265625 Z M 33.359375 -20.203125 "/></g></g></g><g fill="#ff1616" fill-opacity="1"><g transform="translate(315.181113, 184.901421)"><g><path d="M 15.625 -6.375 L 9.234375 -3.765625 L -15 -63.1875 L -8.609375 -65.796875 L 1.671875 -40.5625 L 7.296875 -72.28125 L 14.4375 -75.203125 L 8.6875 -43 L 39.75 -16.21875 L 32.71875 -13.34375 L 7.34375 -35.296875 L 6.3125 -29.21875 Z M 15.625 -6.375 "/></g></g></g><g fill="#ff1616" fill-opacity="1"><g transform="translate(355.534541, 168.087073)"><g><path d="M 29.640625 -59.71875 L 38.25 -21.1875 C 39.207031 -16.875 38.582031 -13.238281 36.375 -10.28125 C 34.175781 -7.332031 30.363281 -5.25 24.9375 -4.03125 C 19.507812 -2.820312 15.148438 -3.082031 11.859375 -4.8125 C 8.578125 -6.539062 6.457031 -9.5625 5.5 -13.875 L -3.109375 -52.40625 C -4.066406 -56.707031 -3.441406 -60.332031 -1.234375 -63.28125 C 0.960938 -66.238281 4.773438 -68.320312 10.203125 -69.53125 C 15.628906 -70.75 19.984375 -70.492188 23.265625 -68.765625 C 26.554688 -67.035156 28.679688 -64.019531 29.640625 -59.71875 Z M 31.515625 -19.6875 L 22.90625 -58.21875 C 21.757812 -63.351562 17.972656 -65.203125 11.546875 -63.765625 C 5.117188 -62.328125 2.476562 -59.039062 3.625 -53.90625 L 12.234375 -15.375 C 13.378906 -10.226562 17.164062 -8.375 23.59375 -9.8125 C 30.019531 -11.25 32.660156 -14.539062 31.515625 -19.6875 Z M 31.515625 -19.6875 "/></g></g></g><g fill="#ff1616" fill-opacity="1"><g transform="translate(402.94822, 157.110608)"><g><path d="M 16.765625 -0.59375 L 9.875 -0.359375 L 7.59375 -64.484375 L 14.484375 -64.71875 L 37.640625 -16.15625 L 35.890625 -65.484375 L 42.796875 -65.734375 L 45.078125 -1.609375 L 38.171875 -1.359375 L 15 -49.921875 Z M 16.765625 -0.59375 "/></g></g></g><g fill="#ff1616" fill-opacity="1"><g transform="translate(456.190599, 155.276049)"><g><path d="M 49.15625 -45.0625 L 43.328125 -6 C 42.671875 -1.632812 40.78125 1.523438 37.65625 3.484375 C 34.53125 5.441406 30.21875 6.007812 24.71875 5.1875 C 19.21875 4.375 15.242188 2.570312 12.796875 -0.21875 C 10.359375 -3.019531 9.46875 -6.601562 10.125 -10.96875 L 15.953125 -50.03125 C 16.609375 -54.382812 18.492188 -57.539062 21.609375 -59.5 C 24.734375 -61.457031 29.046875 -62.023438 34.546875 -61.203125 C 40.046875 -60.378906 44.019531 -58.570312 46.46875 -55.78125 C 48.914062 -52.988281 49.8125 -49.414062 49.15625 -45.0625 Z M 36.484375 -7.015625 L 42.3125 -46.078125 C 43.09375 -51.273438 40.226562 -54.359375 33.71875 -55.328125 C 27.207031 -56.304688 23.5625 -54.195312 22.78125 -49 L 16.953125 -9.9375 C 16.171875 -4.726562 19.035156 -1.632812 25.546875 -0.65625 C 32.054688 0.3125 35.703125 -1.804688 36.484375 -7.015625 Z M 36.484375 -7.015625 "/></g></g></g><g fill="#ff1616" fill-opacity="1"><g transform="translate(504.112374, 161.584469)"><g><path d="M 15.796875 5.6875 L 9.296875 3.34375 L 31.03125 -57.03125 L 40.765625 -53.515625 L 37.015625 -9.84375 L 62.046875 -45.859375 L 71.796875 -42.359375 L 50.0625 18.015625 L 43.5625 15.6875 L 61.546875 -34.28125 L 36.046875 2.46875 L 30 0.296875 L 33.78125 -44.28125 Z M 15.796875 5.6875 "/></g></g></g><g fill="#ff1616" fill-opacity="1"><g transform="translate(561.471434, 182.995568)"><g><path d="M 33.609375 19.796875 L 8.515625 5.015625 L 41.078125 -50.28125 L 65.296875 -36.015625 L 62.296875 -30.90625 L 44.015625 -41.671875 L 32.484375 -22.09375 L 47.375 -13.328125 L 44.375 -8.234375 L 29.484375 -17 L 17.453125 3.40625 L 36.609375 14.6875 Z M 33.609375 19.796875 "/></g></g></g><g fill="#ff1616" fill-opacity="1"><g transform="translate(598.551523, 204.568862)"><g><path d="M 12.890625 10.734375 L 7.59375 6.3125 L 48.65625 -43 L 60.109375 -33.453125 C 64.054688 -30.171875 66.269531 -26.738281 66.75 -23.15625 C 67.238281 -19.582031 66.09375 -16.128906 63.3125 -12.796875 L 54.46875 -2.1875 C 50.164062 2.976562 45.203125 4.421875 39.578125 2.140625 L 33.765625 28.109375 L 27.921875 23.25 L 33.578125 -1.59375 L 27.421875 -6.71875 Z M 49.171875 -6.609375 L 58.015625 -17.21875 C 59.609375 -19.132812 60.265625 -21.109375 59.984375 -23.140625 C 59.710938 -25.179688 58.492188 -27.101562 56.328125 -28.90625 L 50.171875 -34.03125 L 31.203125 -11.265625 L 37.359375 -6.140625 C 41.859375 -2.398438 45.796875 -2.554688 49.171875 -6.609375 Z M 49.171875 -6.609375 "/></g></g></g></svg>