<svg xmlns="http://www.w3.org/2000/svg" xmlns:xlink="http://www.w3.org/1999/xlink" width="1080" zoomAndPan="magnify" viewBox="0 0 810 809.999993" height="1080" preserveAspectRatio="xMidYMid meet" version="1.0"><defs><g/><clipPath id="id1"><path d="M 0 0.00390625 L 810 0.00390625 L 810 810 L 0 810 Z M 0 0.00390625 " clip-rule="nonzero"/></clipPath><clipPath id="id2"><path d="M 810 405.007812 C 810 628.671875 628.671875 810 405 810 C 181.324219 810 0 628.671875 0 405.007812 C 0 181.328125 181.324219 0.00390625 405 0.00390625 C 628.675781 0.00390625 810 181.328125 810 405.007812 Z M 810 405.007812 " clip-rule="nonzero"/></clipPath><clipPath id="id3"><path d="M 168 171 L 646 171 L 646 649 L 168 649 Z M 168 171 " clip-rule="nonzero"/></clipPath><clipPath id="id4"><path d="M 540.394531 99.679688 L 716.851562 542.984375 L 273.546875 719.441406 L 97.089844 276.136719 Z M 540.394531 99.679688 " clip-rule="nonzero"/></clipPath><clipPath id="id5"><path d="M 191.753906 181.554688 L 667.941406 181.554688 L 667.941406 657.742188 L 191.753906 657.742188 Z M 191.753906 181.554688 " clip-rule="nonzero"/></clipPath><clipPath id="id6"><path d="M 218.707031 208.507812 L 640.609375 208.507812 L 640.609375 630.410156 L 218.707031 630.410156 Z M 218.707031 208.507812 " clip-rule="nonzero"/></clipPath></defs><rect x="-81" width="972" fill="#ffffff" y="-80.999999" height="971.999992" fill-opacity="1"/><rect x="-81" width="972" fill="#253439" y="-80.999999" height="971.999992" fill-opacity="1"/><rect x="-81" width="972" fill="#ffffff" y="-80.999999" height="971.999992" fill-opacity="1"/><rect x="-81" width="972" fill="#253439" y="-80.999999" height="971.999992" fill-opacity="1"/><g clip-path="url(#id1)"><g clip-path="url(#id2)"><path fill="#ffffff" d="M 0 0.00390625 L 810 0.00390625 L 810 810.003906 L 0 810.003906 Z M 0 0.00390625 " fill-opacity="1" fill-rule="nonzero"/></g></g><g clip-path="url(#id3)"><g clip-path="url(#id4)"><path fill="#fc164b" d="M 249.464844 230.457031 C 252.214844 227.960938 255.246094 225.582031 258.074219 223.289062 L 644.894531 389.839844 C 645.171875 393.472656 645.527344 397.308594 645.601562 401.023438 Z M 639.101562 354.710938 C 638.179688 350.632812 636.976562 346.433594 635.851562 342.4375 L 298.441406 197.160156 C 294.765625 199.089844 290.886719 201.101562 287.292969 203.234375 Z M 639.402344 463.617188 C 640.175781 460.269531 640.949219 456.921875 641.519531 453.652344 L 213.757812 269.472656 C 211.773438 272.132812 209.871094 274.996094 207.96875 277.859375 Z M 645.324219 422.65625 C 645.53125 419.066406 645.738281 415.472656 645.746094 411.960938 L 241.417969 237.871094 C 238.871094 240.289062 236.40625 242.910156 233.9375 245.527344 Z M 643.070312 443.441406 C 643.558594 439.972656 644.050781 436.5 644.339844 433.109375 L 226.457031 253.183594 C 224.195312 255.722656 222.007812 258.464844 219.824219 261.207031 Z M 574.628906 239.765625 C 566.609375 231.960938 558.066406 224.601562 549.074219 217.882812 L 448.558594 174.605469 C 437.421875 172.488281 426.203125 171.339844 415.101562 171.078125 Z M 626.734375 316.585938 L 323.488281 186.019531 C 319.046875 187.789062 314.804688 189.476562 310.441406 191.445312 L 631.675781 329.59375 C 630.191406 325.269531 628.421875 320.828125 626.734375 316.585938 Z M 496.308594 630.769531 L 184.875 496.679688 C 186.644531 501.121094 188.492188 505.765625 190.664062 510.050781 L 482.617188 635.753906 C 487.140625 634.1875 491.867188 632.539062 496.308594 630.769531 Z M 633.839844 483.144531 C 634.894531 479.917969 635.949219 476.691406 636.800781 473.542969 L 202.546875 286.566406 C 200.847656 289.351562 199.226562 292.335938 197.605469 295.316406 Z M 620.378906 302.972656 C 617.964844 298.085938 615.429688 293.480469 612.613281 288.75 L 353.414062 177.148438 C 348.042969 178.351562 342.953125 179.675781 337.746094 181.28125 Z M 603.152344 273.800781 C 599.324219 268.304688 595.296875 262.890625 590.867188 257.632812 L 390.882812 171.359375 C 384.101562 171.953125 377.519531 172.46875 370.695312 173.546875 Z M 643.542969 378.210938 C 642.902344 374.253906 642.34375 370.5 641.707031 366.542969 L 276.90625 209.472656 C 273.59375 211.730469 270.480469 213.902344 267.167969 216.160156 Z M 451.28125 644.015625 C 456.933594 642.9375 462.304688 641.734375 467.796875 640.25 L 197.585938 523.90625 C 200.28125 528.914062 203.179688 533.84375 206.199219 538.492188 Z M 508.871094 625.304688 C 512.832031 623.492188 516.707031 621.480469 520.585938 619.46875 L 176.601562 471.195312 C 177.808594 475.394531 179.011719 479.59375 180.417969 483.714844 Z M 531.375 613.070312 C 534.769531 611.015625 538.082031 608.761719 541.398438 606.507812 L 171.4375 447.046875 C 172.074219 451.003906 172.714844 454.960938 173.554688 458.835938 Z M 626.988281 501.78125 C 628.324219 498.675781 629.457031 495.652344 630.796875 492.546875 L 193.152344 304.109375 C 191.734375 307.015625 190.398438 310.121094 189.058594 313.226562 Z M 329.59375 635.132812 C 346.941406 641.09375 364.371094 644.917969 381.96875 646.804688 L 251.804688 590.761719 C 265.265625 602.246094 280.023438 612.28125 296.277344 620.785156 Z M 550.855469 599.703125 C 553.886719 597.324219 556.714844 595.027344 559.746094 592.652344 L 168.972656 424.398438 C 169.328125 428.234375 169.605469 431.867188 169.960938 435.703125 Z M 410.140625 648.226562 C 417.566406 648.078125 424.914062 647.726562 432.304688 646.890625 L 217.152344 554.253906 C 221.621094 560.195312 226.417969 565.773438 231.410156 571.269531 Z M 608.4375 537.476562 C 610.140625 534.691406 612.039062 531.828125 613.660156 528.84375 L 178.476562 341.300781 C 177.421875 344.53125 176.648438 347.878906 175.796875 351.027344 Z M 568.074219 585.359375 C 570.824219 582.863281 573.371094 580.445312 575.835938 577.824219 L 168.402344 402.398438 C 168.195312 405.992188 168.269531 409.703125 168.265625 413.214844 Z M 618.519531 519.890625 C 620.140625 516.90625 621.558594 514.003906 622.894531 510.898438 L 184.96875 322.339844 C 183.628906 325.449219 182.574219 328.675781 181.441406 331.699219 Z M 596.785156 554.046875 C 598.769531 551.382812 600.953125 548.644531 602.855469 545.78125 L 173.398438 360.871094 C 172.625 364.21875 172.054688 367.488281 171.566406 370.960938 Z M 583.316406 570.167969 C 585.582031 567.628906 588.046875 565.007812 590.234375 562.269531 L 170.09375 381.371094 C 169.605469 384.839844 169.316406 388.230469 169.109375 391.824219 Z M 583.316406 570.167969 " fill-opacity="1" fill-rule="nonzero"/></g></g><g clip-path="url(#id5)"><path fill="#fc164b" d="M 429.847656 181.554688 C 298.351562 181.554688 191.753906 288.152344 191.753906 419.648438 C 191.753906 551.144531 298.351562 657.742188 429.847656 657.742188 C 561.34375 657.742188 667.941406 551.144531 667.941406 419.648438 C 667.941406 288.152344 561.34375 181.554688 429.847656 181.554688 " fill-opacity="1" fill-rule="nonzero"/></g><g clip-path="url(#id6)"><path fill="#ffffff" d="M 429.65625 630.410156 C 313.375 630.410156 218.707031 535.742188 218.707031 419.457031 C 218.707031 303.175781 313.375 208.507812 429.65625 208.507812 C 545.941406 208.507812 640.609375 303.175781 640.609375 419.457031 C 640.609375 535.742188 545.941406 630.410156 429.65625 630.410156 Z M 429.65625 211.625 C 315.035156 211.625 221.824219 304.835938 221.824219 419.457031 C 221.824219 534.078125 315.035156 627.292969 429.65625 627.292969 C 544.277344 627.292969 637.492188 534.078125 637.492188 419.457031 C 637.492188 304.835938 544.277344 211.625 429.65625 211.625 Z M 429.65625 211.625 " fill-opacity="1" fill-rule="nonzero"/></g><g fill="#ff1616" fill-opacity="1"><g transform="translate(271.893907, 636.730351)"><g><path d="M -12.203125 -8.953125 L -6.875 -5.03125 L -43.25 44.59375 L -54.765625 36.140625 C -58.742188 33.222656 -61.070312 30.066406 -61.75 26.671875 C -62.425781 23.273438 -61.535156 19.898438 -59.078125 16.546875 L -49.5625 3.5625 C -47.0625 0.15625 -44.113281 -1.726562 -40.71875 -2.09375 C -37.332031 -2.457031 -33.625 -1.164062 -29.59375 1.78125 L -23.40625 6.3125 Z M -44.21875 7.484375 L -53.734375 20.46875 C -55.148438 22.394531 -55.660156 24.320312 -55.265625 26.25 C -54.878906 28.175781 -53.59375 29.941406 -51.40625 31.546875 L -45.21875 36.078125 L -26.75 10.890625 L -32.9375 6.359375 C -37.46875 3.035156 -41.226562 3.410156 -44.21875 7.484375 Z M -44.21875 7.484375 "/></g></g></g><g fill="#ff1616" fill-opacity="1"><g transform="translate(237.530906, 611.770603)"><g><path d="M -11.25 -11.515625 L -6.609375 -6.765625 L -50.625 36.234375 L -60.625 26 C -64.0625 22.476562 -65.835938 18.984375 -65.953125 15.515625 C -66.066406 12.054688 -64.632812 8.875 -61.65625 5.96875 L -52.171875 -3.296875 C -47.578125 -7.785156 -42.703125 -8.664062 -37.546875 -5.9375 L -29.4375 -30.125 L -24.34375 -24.90625 L -32.171875 -1.796875 L -26.8125 3.6875 Z M -47.53125 1.4375 L -57.015625 10.703125 C -58.734375 12.378906 -59.5625 14.195312 -59.5 16.15625 C -59.4375 18.125 -58.457031 20.078125 -56.5625 22.015625 L -51.203125 27.5 L -30.890625 7.671875 L -36.25 2.1875 C -40.164062 -1.832031 -43.925781 -2.082031 -47.53125 1.4375 Z M -47.53125 1.4375 "/></g></g></g><g fill="#ff1616" fill-opacity="1"><g transform="translate(206.20114, 580.009398)"><g><path d="M -63.734375 -5.0625 L -32.515625 -26.484375 C -29.023438 -28.867188 -25.570312 -29.609375 -22.15625 -28.703125 C -18.738281 -27.796875 -15.519531 -25.140625 -12.5 -20.734375 C -9.488281 -16.335938 -8.160156 -12.367188 -8.515625 -8.828125 C -8.878906 -5.296875 -10.804688 -2.335938 -14.296875 0.046875 L -45.515625 21.46875 C -49.003906 23.851562 -52.457031 24.59375 -55.875 23.6875 C -59.300781 22.789062 -62.519531 20.140625 -65.53125 15.734375 C -68.550781 11.335938 -69.878906 7.367188 -69.515625 3.828125 C -69.148438 0.285156 -67.222656 -2.675781 -63.734375 -5.0625 Z M -28.765625 -21.03125 L -59.984375 0.390625 C -64.148438 3.242188 -64.445312 7.273438 -60.875 12.484375 C -57.300781 17.691406 -53.429688 18.867188 -49.265625 16.015625 L -18.046875 -5.40625 C -13.890625 -8.257812 -13.597656 -12.289062 -17.171875 -17.5 C -20.742188 -22.707031 -24.609375 -23.882812 -28.765625 -21.03125 Z M -28.765625 -21.03125 "/></g></g></g><g fill="#ff1616" fill-opacity="1"><g transform="translate(179.616533, 541.381527)"><g><path d="M -32.40625 -9.515625 L -37.5625 -7.171875 L -44.6875 -22.84375 L -16.25 -35.765625 L -15.0625 -33.171875 L -19.5625 -28.4375 C -16.957031 -28.175781 -14.59375 -27.347656 -12.46875 -25.953125 C -10.34375 -24.566406 -8.753906 -22.71875 -7.703125 -20.40625 C -3.921875 -12.082031 -6.050781 -6.09375 -14.09375 -2.4375 L -48.5625 13.21875 C -52.414062 14.96875 -55.925781 15.140625 -59.09375 13.734375 C -62.257812 12.335938 -64.910156 9.28125 -67.046875 4.5625 C -69.191406 -0.144531 -69.765625 -4.179688 -68.765625 -7.546875 C -67.765625 -10.910156 -65.335938 -13.46875 -61.484375 -15.21875 L -56.75 -17.375 L -54 -11.34375 L -58.734375 -9.1875 C -63.335938 -7.09375 -64.398438 -3.316406 -61.921875 2.140625 C -59.441406 7.597656 -55.898438 9.28125 -51.296875 7.1875 L -16.828125 -8.46875 C -14.648438 -9.457031 -13.171875 -10.6875 -12.390625 -12.15625 C -11.609375 -13.625 -11.769531 -15.578125 -12.875 -18.015625 C -13.976562 -20.453125 -15.984375 -22.273438 -18.890625 -23.484375 C -21.796875 -24.703125 -24.160156 -24.894531 -25.984375 -24.0625 L -36.78125 -19.15625 Z M -32.40625 -9.515625 "/></g></g></g><g fill="#ff1616" fill-opacity="1"><g transform="translate(160.518655, 499.462431)"><g><path d="M -4.0625 -15.578125 L -2.390625 -9.15625 L -61.921875 6.390625 L -65.53125 -7.453125 C -66.78125 -12.203125 -66.597656 -16.109375 -64.984375 -19.171875 C -63.367188 -22.234375 -60.550781 -24.289062 -56.53125 -25.34375 L -43.6875 -28.703125 C -37.46875 -30.328125 -32.800781 -28.679688 -29.6875 -23.765625 L -10.640625 -40.765625 L -8.796875 -33.703125 L -27.0625 -17.5 L -25.125 -10.078125 Z M -42.015625 -22.296875 L -54.859375 -18.9375 C -57.171875 -18.332031 -58.78125 -17.160156 -59.6875 -15.421875 C -60.601562 -13.679688 -60.71875 -11.503906 -60.03125 -8.890625 L -58.09375 -1.46875 L -30.625 -8.640625 L -32.5625 -16.0625 C -33.988281 -21.488281 -37.140625 -23.566406 -42.015625 -22.296875 Z M -42.015625 -22.296875 "/></g></g></g><g fill="#ff1616" fill-opacity="1"><g transform="translate(149.255254, 456.021923)"><g><path d="M -3.484375 -37.234375 L -0.890625 -9.421875 L -62.15625 -3.6875 L -64.65625 -30.546875 L -58.984375 -31.078125 L -57.09375 -10.828125 L -35.421875 -12.859375 L -36.96875 -29.34375 L -31.3125 -29.875 L -29.765625 -13.390625 L -7.140625 -15.5 L -9.125 -36.703125 Z M -3.484375 -37.234375 "/></g></g></g><g fill="#ff1616" fill-opacity="1"><g transform="translate(145.128453, 415.161083)"><g><path d="M -9 -40.296875 C -0.1875 -39.679688 3.835938 -34.054688 3.078125 -23.421875 C 2.328125 -12.785156 -2.453125 -7.773438 -11.265625 -8.390625 L -19.296875 -8.96875 L -18.828125 -15.578125 L -10.421875 -14.984375 C -8.160156 -14.816406 -6.34375 -15.472656 -4.96875 -16.953125 C -3.59375 -18.441406 -2.796875 -20.722656 -2.578125 -23.796875 C -2.359375 -26.878906 -2.820312 -29.253906 -3.96875 -30.921875 C -5.125 -32.585938 -6.785156 -33.5 -8.953125 -33.65625 C -11.128906 -33.8125 -12.875 -33.695312 -14.1875 -33.3125 C -15.507812 -32.925781 -16.953125 -32.0625 -18.515625 -30.71875 L -35.9375 -15.265625 C -38.019531 -13.441406 -40.015625 -12.234375 -41.921875 -11.640625 C -43.835938 -11.054688 -46.207031 -10.867188 -49.03125 -11.078125 C -53.25 -11.367188 -56.414062 -12.898438 -58.53125 -15.671875 C -60.644531 -18.453125 -61.515625 -22.484375 -61.140625 -27.765625 C -60.421875 -37.910156 -55.648438 -42.671875 -46.828125 -42.046875 L -38.8125 -41.46875 L -39.28125 -34.859375 L -47.6875 -35.453125 C -49.945312 -35.617188 -51.757812 -35.003906 -53.125 -33.609375 C -54.488281 -32.222656 -55.273438 -30.046875 -55.484375 -27.078125 C -55.703125 -24.117188 -55.234375 -21.859375 -54.078125 -20.296875 C -52.921875 -18.734375 -51.238281 -17.875 -49.03125 -17.71875 C -46.832031 -17.5625 -45.085938 -17.660156 -43.796875 -18.015625 C -42.503906 -18.367188 -41.113281 -19.242188 -39.625 -20.640625 L -22.1875 -36.390625 C -20.039062 -38.078125 -18.015625 -39.203125 -16.109375 -39.765625 C -14.203125 -40.328125 -11.832031 -40.503906 -9 -40.296875 Z M -9 -40.296875 "/></g></g></g><g fill="#ff1616" fill-opacity="1"><g transform="translate(148.251625, 369.439418)"><g><path d="M -1.953125 -41.234375 C 6.617188 -39.109375 9.617188 -32.875 7.046875 -22.53125 C 4.484375 -12.1875 -1.082031 -8.078125 -9.65625 -10.203125 L -17.46875 -12.15625 L -15.875 -18.578125 L -7.6875 -16.546875 C -5.488281 -15.992188 -3.585938 -16.332031 -1.984375 -17.5625 C -0.378906 -18.789062 0.789062 -20.90625 1.53125 -23.90625 C 2.28125 -26.90625 2.234375 -29.320312 1.390625 -31.15625 C 0.546875 -32.988281 -0.925781 -34.164062 -3.03125 -34.6875 C -5.144531 -35.21875 -6.882812 -35.410156 -8.25 -35.265625 C -9.625 -35.117188 -11.191406 -34.515625 -12.953125 -33.453125 L -32.765625 -21.203125 C -35.140625 -19.773438 -37.316406 -18.9375 -39.296875 -18.6875 C -41.273438 -18.4375 -43.640625 -18.648438 -46.390625 -19.328125 C -50.492188 -20.347656 -53.347656 -22.40625 -54.953125 -25.5 C -56.566406 -28.59375 -56.738281 -32.710938 -55.46875 -37.859375 C -53.007812 -47.722656 -47.488281 -51.585938 -38.90625 -49.453125 L -31.109375 -47.515625 L -32.703125 -41.09375 L -40.890625 -43.125 C -43.085938 -43.675781 -44.976562 -43.378906 -46.5625 -42.234375 C -48.144531 -41.097656 -49.296875 -39.085938 -50.015625 -36.203125 C -50.734375 -33.328125 -50.65625 -31.019531 -49.78125 -29.28125 C -48.914062 -27.539062 -47.410156 -26.40625 -45.265625 -25.875 C -43.128906 -25.34375 -41.390625 -25.140625 -40.046875 -25.265625 C -38.710938 -25.390625 -37.195312 -26.015625 -35.5 -27.140625 L -15.59375 -39.65625 C -13.195312 -40.945312 -11.015625 -41.703125 -9.046875 -41.921875 C -7.078125 -42.148438 -4.710938 -41.921875 -1.953125 -41.234375 Z M -1.953125 -41.234375 "/></g></g></g><g fill="#ff1616" fill-opacity="1"><g transform="translate(160.066515, 324.318205)"><g><path d="M 3.296875 -23.1875 L 8.546875 -21.046875 L 2.5 -6.140625 L -2.75 -8.28125 L -0.96875 -12.671875 L -47.453125 -31.546875 L -49.234375 -27.15625 L -54.5 -29.296875 L -48.453125 -44.203125 L -43.1875 -42.0625 L -44.96875 -37.671875 L 1.515625 -18.796875 Z M 3.296875 -23.1875 "/></g></g></g><g fill="#ff1616" fill-opacity="1"><g transform="translate(170.446862, 297.218474)"><g><path d="M 13.859375 -23.90625 L 8.875 -15.3125 L -51.34375 -34.125 L -48.015625 -39.859375 L 5.046875 -23.234375 L -35.71875 -61.078125 L -32.40625 -66.796875 Z M 13.859375 -23.90625 "/></g></g></g><g fill="#ff1616" fill-opacity="1"><g transform="translate(192.528745, 258.929311)"><g><path d="M -36.09375 -52.890625 L -29.765625 -60.53125 L 26.5 -32 L 22.28125 -26.890625 L 9.28125 -33.46875 L -2.25 -19.5625 L 6.640625 -8.015625 L 2.40625 -2.90625 Z M -27.25 -51.953125 L -5.828125 -24.109375 L 4.078125 -36.078125 Z M -27.25 -51.953125 "/></g></g></g><g fill="#ff1616" fill-opacity="1"><g transform="translate(221.996479, 224.521087)"><g/></g></g><g fill="#ff1616" fill-opacity="1"><g transform="translate(238.785182, 208.874442)"><g/></g></g><g fill="#ff1616" fill-opacity="1"><g transform="translate(255.687865, 194.826271)"><g><path d="M 31.984375 -19.375 L 8.09375 -4.90625 L -23.78125 -57.53125 L -0.703125 -71.5 L 2.234375 -66.640625 L -15.171875 -56.109375 L -3.890625 -37.484375 L 10.28125 -46.0625 L 13.234375 -41.203125 L -0.9375 -32.625 L 10.828125 -13.1875 L 29.046875 -24.21875 Z M 31.984375 -19.375 "/></g></g></g><g fill="#ff1616" fill-opacity="1"><g transform="translate(290.914527, 173.366763)"><g><path d="M 14.984375 -6.109375 L 8.859375 -3.609375 L -14.390625 -60.578125 L -8.265625 -63.078125 L 1.609375 -38.890625 L 6.984375 -69.296875 L 13.828125 -72.09375 L 8.328125 -41.21875 L 38.125 -15.546875 L 31.375 -12.796875 L 7.03125 -33.859375 L 6.046875 -28.015625 Z M 14.984375 -6.109375 "/></g></g></g><g fill="#ff1616" fill-opacity="1"><g transform="translate(329.607443, 157.244303)"><g><path d="M 28.4375 -57.265625 L 36.6875 -20.3125 C 37.613281 -16.1875 37.015625 -12.707031 34.890625 -9.875 C 32.773438 -7.039062 29.113281 -5.039062 23.90625 -3.875 C 18.707031 -2.71875 14.535156 -2.96875 11.390625 -4.625 C 8.242188 -6.28125 6.207031 -9.171875 5.28125 -13.296875 L -2.96875 -50.25 C -3.882812 -54.375 -3.285156 -57.851562 -1.171875 -60.6875 C 0.929688 -63.519531 4.585938 -65.519531 9.796875 -66.6875 C 15.003906 -67.851562 19.179688 -67.601562 22.328125 -65.9375 C 25.484375 -64.28125 27.519531 -61.390625 28.4375 -57.265625 Z M 30.21875 -18.875 L 21.96875 -55.828125 C 20.863281 -60.753906 17.226562 -62.53125 11.0625 -61.15625 C 4.90625 -59.78125 2.378906 -56.628906 3.484375 -51.703125 L 11.734375 -14.75 C 12.835938 -9.820312 16.46875 -8.046875 22.625 -9.421875 C 28.789062 -10.796875 31.320312 -13.945312 30.21875 -18.875 Z M 30.21875 -18.875 "/></g></g></g><g fill="#ff1616" fill-opacity="1"><g transform="translate(375.070095, 146.719502)"><g><path d="M 16.078125 -0.578125 L 9.46875 -0.34375 L 7.28125 -61.828125 L 13.890625 -62.0625 L 36.09375 -15.5 L 34.40625 -62.796875 L 41.046875 -63.03125 L 43.234375 -1.546875 L 36.59375 -1.3125 L 14.390625 -47.875 Z M 16.078125 -0.578125 "/></g></g></g><g fill="#ff1616" fill-opacity="1"><g transform="translate(426.121605, 144.960434)"><g><path d="M 47.140625 -43.1875 L 41.546875 -5.75 C 40.921875 -1.5625 39.109375 1.46875 36.109375 3.34375 C 33.117188 5.21875 28.988281 5.757812 23.71875 4.96875 C 18.445312 4.1875 14.632812 2.457031 12.28125 -0.21875 C 9.9375 -2.894531 9.078125 -6.328125 9.703125 -10.515625 L 15.296875 -47.953125 C 15.921875 -52.140625 17.734375 -55.175781 20.734375 -57.0625 C 23.734375 -58.945312 27.867188 -59.492188 33.140625 -58.703125 C 38.410156 -57.910156 42.21875 -56.171875 44.5625 -53.484375 C 46.90625 -50.804688 47.765625 -47.375 47.140625 -43.1875 Z M 34.984375 -6.734375 L 40.578125 -44.171875 C 41.328125 -49.171875 38.582031 -52.132812 32.34375 -53.0625 C 26.101562 -54 22.609375 -51.96875 21.859375 -46.96875 L 16.265625 -9.53125 C 15.515625 -4.539062 18.257812 -1.578125 24.5 -0.640625 C 30.738281 0.285156 34.234375 -1.742188 34.984375 -6.734375 Z M 34.984375 -6.734375 "/></g></g></g><g fill="#ff1616" fill-opacity="1"><g transform="translate(472.071494, 151.009259)"><g><path d="M 15.140625 5.453125 L 8.90625 3.203125 L 29.75 -54.6875 L 39.109375 -51.3125 L 35.515625 -9.453125 L 59.5 -43.984375 L 68.84375 -40.609375 L 48 17.28125 L 41.765625 15.03125 L 59.015625 -32.875 L 34.546875 2.375 L 28.765625 0.296875 L 32.390625 -42.453125 Z M 15.140625 5.453125 "/></g></g></g><g fill="#ff1616" fill-opacity="1"><g transform="translate(527.070199, 171.539315)"><g><path d="M 32.21875 18.984375 L 8.15625 4.8125 L 39.390625 -48.203125 L 62.625 -34.515625 L 59.734375 -29.609375 L 42.203125 -39.9375 L 31.15625 -21.1875 L 45.4375 -12.78125 L 42.546875 -7.890625 L 28.265625 -16.296875 L 16.734375 3.28125 L 35.09375 14.09375 Z M 32.21875 18.984375 "/></g></g></g><g fill="#ff1616" fill-opacity="1"><g transform="translate(562.624554, 192.22491)"><g><path d="M 12.375 10.296875 L 7.28125 6.0625 L 46.65625 -41.21875 L 57.640625 -32.078125 C 61.421875 -28.929688 63.546875 -25.640625 64.015625 -22.203125 C 64.484375 -18.773438 63.382812 -15.46875 60.71875 -12.28125 L 52.234375 -2.078125 C 48.117188 2.859375 43.359375 4.234375 37.953125 2.046875 L 32.375 26.953125 L 26.765625 22.28125 L 32.1875 -1.515625 L 26.296875 -6.421875 Z M 47.140625 -6.3125 L 55.625 -16.515625 C 57.15625 -18.347656 57.785156 -20.234375 57.515625 -22.171875 C 57.253906 -24.117188 56.082031 -25.960938 54 -27.703125 L 48.109375 -32.609375 L 29.9375 -10.796875 L 35.828125 -5.890625 C 40.140625 -2.296875 43.910156 -2.4375 47.140625 -6.3125 Z M 47.140625 -6.3125 "/></g></g></g></svg>