<svg xmlns="http://www.w3.org/2000/svg" xmlns:xlink="http://www.w3.org/1999/xlink" width="1080" zoomAndPan="magnify" viewBox="0 0 810 809.999993" height="1080" preserveAspectRatio="xMidYMid meet" version="1.0"><defs><g/><clipPath id="id1"><path d="M 204 183 L 682 183 L 682 661 L 204 661 Z M 204 183 " clip-rule="nonzero"/></clipPath><clipPath id="id2"><path d="M 576.191406 112.148438 L 752.648438 555.453125 L 309.34375 731.910156 L 132.886719 288.605469 Z M 576.191406 112.148438 " clip-rule="nonzero"/></clipPath><clipPath id="id3"><path d="M 227.550781 194.023438 L 703.738281 194.023438 L 703.738281 670.207031 L 227.550781 670.207031 Z M 227.550781 194.023438 " clip-rule="nonzero"/></clipPath><clipPath id="id4"><path d="M 254.503906 220.972656 L 676.40625 220.972656 L 676.40625 642.878906 L 254.503906 642.878906 Z M 254.503906 220.972656 " clip-rule="nonzero"/></clipPath></defs><rect x="-81" width="972" fill="#ffffff" y="-80.999999" height="971.999992" fill-opacity="1"/><rect x="-81" width="972" fill="#ffffff" y="-80.999999" height="971.999992" fill-opacity="1"/><rect x="-81" width="972" fill="#ffffff" y="-80.999999" height="971.999992" fill-opacity="1"/><rect x="-81" width="972" fill="#ffffff" y="-80.999999" height="971.999992" fill-opacity="1"/><g clip-path="url(#id1)"><g clip-path="url(#id2)"><path fill="#fc164b" d="M 285.261719 242.925781 C 288.011719 240.429688 291.042969 238.050781 293.871094 235.753906 L 680.691406 402.308594 C 680.96875 405.941406 681.324219 409.777344 681.398438 413.488281 Z M 674.898438 367.179688 C 673.976562 363.101562 672.773438 358.902344 671.648438 354.902344 L 334.238281 209.625 C 330.5625 211.558594 326.683594 213.570312 323.089844 215.703125 Z M 675.199219 476.085938 C 675.972656 472.738281 676.742188 469.386719 677.316406 466.121094 L 249.554688 281.9375 C 247.570312 284.601562 245.667969 287.460938 243.765625 290.324219 Z M 681.121094 435.125 C 681.328125 431.53125 681.535156 427.941406 681.542969 424.429688 L 277.214844 250.339844 C 274.667969 252.757812 272.203125 255.375 269.734375 257.996094 Z M 678.867188 455.910156 C 679.355469 452.4375 679.847656 448.96875 680.132812 445.578125 L 262.253906 265.652344 C 259.988281 268.191406 257.804688 270.933594 255.621094 273.675781 Z M 610.425781 252.234375 C 602.40625 244.429688 593.863281 237.066406 584.871094 230.351562 L 484.355469 187.074219 C 473.21875 184.957031 462 183.804688 450.898438 183.546875 Z M 662.53125 329.054688 L 359.285156 198.488281 C 354.839844 200.257812 350.601562 201.945312 346.238281 203.914062 L 667.472656 342.0625 C 665.988281 337.738281 664.21875 333.296875 662.53125 329.054688 Z M 532.105469 643.238281 L 220.671875 509.144531 C 222.441406 513.589844 224.289062 518.234375 226.460938 522.515625 L 518.414062 648.222656 C 522.9375 646.65625 527.664062 645.007812 532.105469 643.238281 Z M 669.636719 495.613281 C 670.691406 492.386719 671.746094 489.160156 672.597656 486.011719 L 238.34375 299.035156 C 236.644531 301.816406 235.023438 304.800781 233.402344 307.785156 Z M 656.175781 315.441406 C 653.761719 310.554688 651.226562 305.945312 648.410156 301.21875 L 389.210938 189.617188 C 383.839844 190.820312 378.75 192.144531 373.542969 193.75 Z M 638.949219 286.269531 C 635.121094 280.773438 631.09375 275.355469 626.664062 270.101562 L 426.679688 183.828125 C 419.894531 184.421875 413.316406 184.933594 406.492188 186.011719 Z M 679.339844 390.679688 C 678.699219 386.722656 678.140625 382.96875 677.5 379.011719 L 312.703125 221.941406 C 309.390625 224.195312 306.277344 226.371094 302.964844 228.625 Z M 487.074219 656.484375 C 492.730469 655.402344 498.097656 654.203125 503.589844 652.71875 L 233.382812 536.375 C 236.078125 541.382812 238.976562 546.3125 241.996094 550.960938 Z M 544.667969 637.769531 C 548.628906 635.960938 552.503906 633.949219 556.382812 631.9375 L 212.398438 483.660156 C 213.605469 487.863281 214.808594 492.0625 216.214844 496.179688 Z M 567.171875 625.539062 C 570.566406 623.484375 573.878906 621.230469 577.195312 618.976562 L 207.234375 459.515625 C 207.871094 463.472656 208.511719 467.429688 209.351562 471.304688 Z M 662.78125 514.25 C 664.121094 511.144531 665.253906 508.117188 666.59375 505.011719 L 228.949219 316.578125 C 227.53125 319.480469 226.195312 322.585938 224.855469 325.695312 Z M 365.390625 647.601562 C 382.738281 653.5625 400.167969 657.386719 417.765625 659.273438 L 287.601562 603.230469 C 301.0625 614.714844 315.820312 624.75 332.074219 633.253906 Z M 586.652344 612.167969 C 589.683594 609.792969 592.511719 607.496094 595.542969 605.121094 L 204.769531 436.867188 C 205.125 440.699219 205.402344 444.335938 205.757812 448.167969 Z M 445.9375 660.691406 C 453.363281 660.542969 460.710938 660.191406 468.097656 659.359375 L 252.949219 566.722656 C 257.417969 572.664062 262.210938 578.242188 267.207031 583.738281 Z M 644.234375 549.941406 C 645.933594 547.160156 647.835938 544.296875 649.457031 541.3125 L 214.273438 353.769531 C 213.21875 356.996094 212.445312 360.347656 211.59375 363.492188 Z M 603.871094 597.828125 C 606.621094 595.332031 609.167969 592.914062 611.632812 590.292969 L 204.199219 414.867188 C 203.992188 418.457031 204.066406 422.171875 204.0625 425.683594 Z M 654.316406 532.359375 C 655.9375 529.375 657.351562 526.472656 658.691406 523.367188 L 220.765625 334.808594 C 219.425781 337.914062 218.371094 341.144531 217.238281 344.167969 Z M 632.582031 566.511719 C 634.566406 563.851562 636.75 561.109375 638.652344 558.25 L 209.195312 373.339844 C 208.421875 376.6875 207.851562 379.957031 207.363281 383.425781 Z M 619.113281 582.636719 C 621.378906 580.097656 623.84375 577.476562 626.03125 574.734375 L 205.890625 393.839844 C 205.402344 397.308594 205.113281 400.699219 204.90625 404.292969 Z M 619.113281 582.636719 " fill-opacity="1" fill-rule="nonzero"/></g></g><g clip-path="url(#id3)"><path fill="#fc164b" d="M 465.644531 194.023438 C 334.148438 194.023438 227.550781 300.621094 227.550781 432.117188 C 227.550781 563.609375 334.148438 670.207031 465.644531 670.207031 C 597.140625 670.207031 703.738281 563.609375 703.738281 432.117188 C 703.738281 300.621094 597.140625 194.023438 465.644531 194.023438 " fill-opacity="1" fill-rule="nonzero"/></g><g clip-path="url(#id4)"><path fill="#ffffff" d="M 465.453125 642.878906 C 349.171875 642.878906 254.503906 548.210938 254.503906 431.925781 C 254.503906 315.644531 349.171875 220.972656 465.453125 220.972656 C 581.738281 220.972656 676.40625 315.644531 676.40625 431.925781 C 676.40625 548.210938 581.738281 642.878906 465.453125 642.878906 Z M 465.453125 224.089844 C 350.832031 224.089844 257.621094 317.304688 257.621094 431.925781 C 257.621094 546.546875 350.832031 639.761719 465.453125 639.761719 C 580.074219 639.761719 673.289062 546.546875 673.289062 431.925781 C 673.289062 317.304688 580.074219 224.089844 465.453125 224.089844 Z M 465.453125 224.089844 " fill-opacity="1" fill-rule="nonzero"/></g><g fill="#ff1616" fill-opacity="1"><g transform="translate(307.690467, 649.198062)"><g><path d="M -12.203125 -8.953125 L -6.875 -5.03125 L -43.25 44.59375 L -54.765625 36.140625 C -58.742188 33.222656 -61.070312 30.066406 -61.75 26.671875 C -62.425781 23.273438 -61.535156 19.898438 -59.078125 16.546875 L -49.5625 3.5625 C -47.0625 0.15625 -44.113281 -1.726562 -40.71875 -2.09375 C -37.332031 -2.457031 -33.625 -1.164062 -29.59375 1.78125 L -23.40625 6.3125 Z M -44.21875 7.484375 L -53.734375 20.46875 C -55.148438 22.394531 -55.660156 24.320312 -55.265625 26.25 C -54.878906 28.175781 -53.59375 29.941406 -51.40625 31.546875 L -45.21875 36.078125 L -26.75 10.890625 L -32.9375 6.359375 C -37.46875 3.035156 -41.226562 3.410156 -44.21875 7.484375 Z M -44.21875 7.484375 "/></g></g></g><g fill="#ff1616" fill-opacity="1"><g transform="translate(273.327494, 624.238314)"><g><path d="M -11.25 -11.515625 L -6.609375 -6.765625 L -50.625 36.234375 L -60.625 26 C -64.0625 22.476562 -65.835938 18.984375 -65.953125 15.515625 C -66.066406 12.054688 -64.632812 8.875 -61.65625 5.96875 L -52.171875 -3.296875 C -47.578125 -7.785156 -42.703125 -8.664062 -37.546875 -5.9375 L -29.4375 -30.125 L -24.34375 -24.90625 L -32.171875 -1.796875 L -26.8125 3.6875 Z M -47.53125 1.4375 L -57.015625 10.703125 C -58.734375 12.378906 -59.5625 14.195312 -59.5 16.15625 C -59.4375 18.125 -58.457031 20.078125 -56.5625 22.015625 L -51.203125 27.5 L -30.890625 7.671875 L -36.25 2.1875 C -40.164062 -1.832031 -43.925781 -2.082031 -47.53125 1.4375 Z M -47.53125 1.4375 "/></g></g></g><g fill="#ff1616" fill-opacity="1"><g transform="translate(241.997717, 592.477157)"><g><path d="M -63.734375 -5.0625 L -32.515625 -26.484375 C -29.023438 -28.867188 -25.570312 -29.609375 -22.15625 -28.703125 C -18.738281 -27.796875 -15.519531 -25.140625 -12.5 -20.734375 C -9.488281 -16.335938 -8.160156 -12.367188 -8.515625 -8.828125 C -8.878906 -5.296875 -10.804688 -2.335938 -14.296875 0.046875 L -45.515625 21.46875 C -49.003906 23.851562 -52.457031 24.59375 -55.875 23.6875 C -59.300781 22.789062 -62.519531 20.140625 -65.53125 15.734375 C -68.550781 11.335938 -69.878906 7.367188 -69.515625 3.828125 C -69.148438 0.285156 -67.222656 -2.675781 -63.734375 -5.0625 Z M -28.765625 -21.03125 L -59.984375 0.390625 C -64.148438 3.242188 -64.445312 7.273438 -60.875 12.484375 C -57.300781 17.691406 -53.429688 18.867188 -49.265625 16.015625 L -18.046875 -5.40625 C -13.890625 -8.257812 -13.597656 -12.289062 -17.171875 -17.5 C -20.742188 -22.707031 -24.609375 -23.882812 -28.765625 -21.03125 Z M -28.765625 -21.03125 "/></g></g></g><g fill="#ff1616" fill-opacity="1"><g transform="translate(215.413109, 553.849214)"><g><path d="M -32.40625 -9.515625 L -37.5625 -7.171875 L -44.6875 -22.84375 L -16.25 -35.765625 L -15.0625 -33.171875 L -19.5625 -28.4375 C -16.957031 -28.175781 -14.59375 -27.347656 -12.46875 -25.953125 C -10.34375 -24.566406 -8.753906 -22.71875 -7.703125 -20.40625 C -3.921875 -12.082031 -6.050781 -6.09375 -14.09375 -2.4375 L -48.5625 13.21875 C -52.414062 14.96875 -55.925781 15.140625 -59.09375 13.734375 C -62.257812 12.335938 -64.910156 9.28125 -67.046875 4.5625 C -69.191406 -0.144531 -69.765625 -4.179688 -68.765625 -7.546875 C -67.765625 -10.910156 -65.335938 -13.46875 -61.484375 -15.21875 L -56.75 -17.375 L -54 -11.34375 L -58.734375 -9.1875 C -63.335938 -7.09375 -64.398438 -3.316406 -61.921875 2.140625 C -59.441406 7.597656 -55.898438 9.28125 -51.296875 7.1875 L -16.828125 -8.46875 C -14.648438 -9.457031 -13.171875 -10.6875 -12.390625 -12.15625 C -11.609375 -13.625 -11.769531 -15.578125 -12.875 -18.015625 C -13.976562 -20.453125 -15.984375 -22.273438 -18.890625 -23.484375 C -21.796875 -24.703125 -24.160156 -24.894531 -25.984375 -24.0625 L -36.78125 -19.15625 Z M -32.40625 -9.515625 "/></g></g></g><g fill="#ff1616" fill-opacity="1"><g transform="translate(196.315237, 511.930118)"><g><path d="M -4.0625 -15.578125 L -2.390625 -9.15625 L -61.921875 6.390625 L -65.53125 -7.453125 C -66.78125 -12.203125 -66.597656 -16.109375 -64.984375 -19.171875 C -63.367188 -22.234375 -60.550781 -24.289062 -56.53125 -25.34375 L -43.6875 -28.703125 C -37.46875 -30.328125 -32.800781 -28.679688 -29.6875 -23.765625 L -10.640625 -40.765625 L -8.796875 -33.703125 L -27.0625 -17.5 L -25.125 -10.078125 Z M -42.015625 -22.296875 L -54.859375 -18.9375 C -57.171875 -18.332031 -58.78125 -17.160156 -59.6875 -15.421875 C -60.601562 -13.679688 -60.71875 -11.503906 -60.03125 -8.890625 L -58.09375 -1.46875 L -30.625 -8.640625 L -32.5625 -16.0625 C -33.988281 -21.488281 -37.140625 -23.566406 -42.015625 -22.296875 Z M -42.015625 -22.296875 "/></g></g></g><g fill="#ff1616" fill-opacity="1"><g transform="translate(185.051838, 468.48961)"><g><path d="M -3.484375 -37.234375 L -0.890625 -9.421875 L -62.15625 -3.6875 L -64.65625 -30.546875 L -58.984375 -31.078125 L -57.09375 -10.828125 L -35.421875 -12.859375 L -36.96875 -29.34375 L -31.3125 -29.875 L -29.765625 -13.390625 L -7.140625 -15.5 L -9.125 -36.703125 Z M -3.484375 -37.234375 "/></g></g></g><g fill="#ff1616" fill-opacity="1"><g transform="translate(180.925044, 427.628794)"><g><path d="M -9 -40.296875 C -0.1875 -39.679688 3.835938 -34.054688 3.078125 -23.421875 C 2.328125 -12.785156 -2.453125 -7.773438 -11.265625 -8.390625 L -19.296875 -8.96875 L -18.828125 -15.578125 L -10.421875 -14.984375 C -8.160156 -14.816406 -6.34375 -15.472656 -4.96875 -16.953125 C -3.59375 -18.441406 -2.796875 -20.722656 -2.578125 -23.796875 C -2.359375 -26.878906 -2.820312 -29.253906 -3.96875 -30.921875 C -5.125 -32.585938 -6.785156 -33.5 -8.953125 -33.65625 C -11.128906 -33.8125 -12.875 -33.695312 -14.1875 -33.3125 C -15.507812 -32.925781 -16.953125 -32.0625 -18.515625 -30.71875 L -35.9375 -15.265625 C -38.019531 -13.441406 -40.015625 -12.234375 -41.921875 -11.640625 C -43.835938 -11.054688 -46.207031 -10.867188 -49.03125 -11.078125 C -53.25 -11.367188 -56.414062 -12.898438 -58.53125 -15.671875 C -60.644531 -18.453125 -61.515625 -22.484375 -61.140625 -27.765625 C -60.421875 -37.910156 -55.648438 -42.671875 -46.828125 -42.046875 L -38.8125 -41.46875 L -39.28125 -34.859375 L -47.6875 -35.453125 C -49.945312 -35.617188 -51.757812 -35.003906 -53.125 -33.609375 C -54.488281 -32.222656 -55.273438 -30.046875 -55.484375 -27.078125 C -55.703125 -24.117188 -55.234375 -21.859375 -54.078125 -20.296875 C -52.921875 -18.734375 -51.238281 -17.875 -49.03125 -17.71875 C -46.832031 -17.5625 -45.085938 -17.660156 -43.796875 -18.015625 C -42.503906 -18.367188 -41.113281 -19.242188 -39.625 -20.640625 L -22.1875 -36.390625 C -20.039062 -38.078125 -18.015625 -39.203125 -16.109375 -39.765625 C -14.203125 -40.328125 -11.832031 -40.503906 -9 -40.296875 Z M -9 -40.296875 "/></g></g></g><g fill="#ff1616" fill-opacity="1"><g transform="translate(184.0482, 381.907113)"><g><path d="M -1.953125 -41.234375 C 6.617188 -39.109375 9.617188 -32.875 7.046875 -22.53125 C 4.484375 -12.1875 -1.082031 -8.078125 -9.65625 -10.203125 L -17.46875 -12.15625 L -15.875 -18.578125 L -7.6875 -16.546875 C -5.488281 -15.992188 -3.585938 -16.332031 -1.984375 -17.5625 C -0.378906 -18.789062 0.789062 -20.90625 1.53125 -23.90625 C 2.28125 -26.90625 2.234375 -29.320312 1.390625 -31.15625 C 0.546875 -32.988281 -0.925781 -34.164062 -3.03125 -34.6875 C -5.144531 -35.21875 -6.882812 -35.410156 -8.25 -35.265625 C -9.625 -35.117188 -11.191406 -34.515625 -12.953125 -33.453125 L -32.765625 -21.203125 C -35.140625 -19.773438 -37.316406 -18.9375 -39.296875 -18.6875 C -41.273438 -18.4375 -43.640625 -18.648438 -46.390625 -19.328125 C -50.492188 -20.347656 -53.347656 -22.40625 -54.953125 -25.5 C -56.566406 -28.59375 -56.738281 -32.710938 -55.46875 -37.859375 C -53.007812 -47.722656 -47.488281 -51.585938 -38.90625 -49.453125 L -31.109375 -47.515625 L -32.703125 -41.09375 L -40.890625 -43.125 C -43.085938 -43.675781 -44.976562 -43.378906 -46.5625 -42.234375 C -48.144531 -41.097656 -49.296875 -39.085938 -50.015625 -36.203125 C -50.734375 -33.328125 -50.65625 -31.019531 -49.78125 -29.28125 C -48.914062 -27.539062 -47.410156 -26.40625 -45.265625 -25.875 C -43.128906 -25.34375 -41.390625 -25.140625 -40.046875 -25.265625 C -38.710938 -25.390625 -37.195312 -26.015625 -35.5 -27.140625 L -15.59375 -39.65625 C -13.195312 -40.945312 -11.015625 -41.703125 -9.046875 -41.921875 C -7.078125 -42.148438 -4.710938 -41.921875 -1.953125 -41.234375 Z M -1.953125 -41.234375 "/></g></g></g><g fill="#ff1616" fill-opacity="1"><g transform="translate(195.863099, 336.7859)"><g><path d="M 3.296875 -23.1875 L 8.546875 -21.046875 L 2.5 -6.140625 L -2.75 -8.28125 L -0.96875 -12.671875 L -47.453125 -31.546875 L -49.234375 -27.15625 L -54.5 -29.296875 L -48.453125 -44.203125 L -43.1875 -42.0625 L -44.96875 -37.671875 L 1.515625 -18.796875 Z M 3.296875 -23.1875 "/></g></g></g><g fill="#ff1616" fill-opacity="1"><g transform="translate(206.243446, 309.686198)"><g><path d="M 13.859375 -23.90625 L 8.875 -15.3125 L -51.34375 -34.125 L -48.015625 -39.859375 L 5.046875 -23.234375 L -35.71875 -61.078125 L -32.40625 -66.796875 Z M 13.859375 -23.90625 "/></g></g></g><g fill="#ff1616" fill-opacity="1"><g transform="translate(228.325319, 271.397006)"><g><path d="M -36.09375 -52.890625 L -29.765625 -60.53125 L 26.5 -32 L 22.28125 -26.890625 L 9.28125 -33.46875 L -2.25 -19.5625 L 6.640625 -8.015625 L 2.40625 -2.90625 Z M -27.25 -51.953125 L -5.828125 -24.109375 L 4.078125 -36.078125 Z M -27.25 -51.953125 "/></g></g></g><g fill="#ff1616" fill-opacity="1"><g transform="translate(257.793054, 236.988782)"><g/></g></g><g fill="#ff1616" fill-opacity="1"><g transform="translate(274.581771, 221.342136)"><g/></g></g><g fill="#ff1616" fill-opacity="1"><g transform="translate(291.484456, 207.293973)"><g><path d="M 31.984375 -19.375 L 8.09375 -4.90625 L -23.78125 -57.53125 L -0.703125 -71.5 L 2.234375 -66.640625 L -15.171875 -56.109375 L -3.890625 -37.484375 L 10.28125 -46.0625 L 13.234375 -41.203125 L -0.9375 -32.625 L 10.828125 -13.1875 L 29.046875 -24.21875 Z M 31.984375 -19.375 "/></g></g></g><g fill="#ff1616" fill-opacity="1"><g transform="translate(326.711116, 185.834457)"><g><path d="M 14.984375 -6.109375 L 8.859375 -3.609375 L -14.390625 -60.578125 L -8.265625 -63.078125 L 1.609375 -38.890625 L 6.984375 -69.296875 L 13.828125 -72.09375 L 8.328125 -41.21875 L 38.125 -15.546875 L 31.375 -12.796875 L 7.03125 -33.859375 L 6.046875 -28.015625 Z M 14.984375 -6.109375 "/></g></g></g><g fill="#ff1616" fill-opacity="1"><g transform="translate(365.404034, 169.712007)"><g><path d="M 28.4375 -57.265625 L 36.6875 -20.3125 C 37.613281 -16.1875 37.015625 -12.707031 34.890625 -9.875 C 32.773438 -7.039062 29.113281 -5.039062 23.90625 -3.875 C 18.707031 -2.71875 14.535156 -2.96875 11.390625 -4.625 C 8.242188 -6.28125 6.207031 -9.171875 5.28125 -13.296875 L -2.96875 -50.25 C -3.882812 -54.375 -3.285156 -57.851562 -1.171875 -60.6875 C 0.929688 -63.519531 4.585938 -65.519531 9.796875 -66.6875 C 15.003906 -67.851562 19.179688 -67.601562 22.328125 -65.9375 C 25.484375 -64.28125 27.519531 -61.390625 28.4375 -57.265625 Z M 30.21875 -18.875 L 21.96875 -55.828125 C 20.863281 -60.753906 17.226562 -62.53125 11.0625 -61.15625 C 4.90625 -59.78125 2.378906 -56.628906 3.484375 -51.703125 L 11.734375 -14.75 C 12.835938 -9.820312 16.46875 -8.046875 22.625 -9.421875 C 28.789062 -10.796875 31.320312 -13.945312 30.21875 -18.875 Z M 30.21875 -18.875 "/></g></g></g><g fill="#ff1616" fill-opacity="1"><g transform="translate(410.866719, 159.187209)"><g><path d="M 16.078125 -0.578125 L 9.46875 -0.34375 L 7.28125 -61.828125 L 13.890625 -62.0625 L 36.09375 -15.5 L 34.40625 -62.796875 L 41.046875 -63.03125 L 43.234375 -1.546875 L 36.59375 -1.3125 L 14.390625 -47.875 Z M 16.078125 -0.578125 "/></g></g></g><g fill="#ff1616" fill-opacity="1"><g transform="translate(461.918155, 157.428136)"><g><path d="M 47.140625 -43.1875 L 41.546875 -5.75 C 40.921875 -1.5625 39.109375 1.46875 36.109375 3.34375 C 33.117188 5.21875 28.988281 5.757812 23.71875 4.96875 C 18.445312 4.1875 14.632812 2.457031 12.28125 -0.21875 C 9.9375 -2.894531 9.078125 -6.328125 9.703125 -10.515625 L 15.296875 -47.953125 C 15.921875 -52.140625 17.734375 -55.175781 20.734375 -57.0625 C 23.734375 -58.945312 27.867188 -59.492188 33.140625 -58.703125 C 38.410156 -57.910156 42.21875 -56.171875 44.5625 -53.484375 C 46.90625 -50.804688 47.765625 -47.375 47.140625 -43.1875 Z M 34.984375 -6.734375 L 40.578125 -44.171875 C 41.328125 -49.171875 38.582031 -52.132812 32.34375 -53.0625 C 26.101562 -54 22.609375 -51.96875 21.859375 -46.96875 L 16.265625 -9.53125 C 15.515625 -4.539062 18.257812 -1.578125 24.5 -0.640625 C 30.738281 0.285156 34.234375 -1.742188 34.984375 -6.734375 Z M 34.984375 -6.734375 "/></g></g></g><g fill="#ff1616" fill-opacity="1"><g transform="translate(507.868069, 163.476968)"><g><path d="M 15.140625 5.453125 L 8.90625 3.203125 L 29.75 -54.6875 L 39.109375 -51.3125 L 35.515625 -9.453125 L 59.5 -43.984375 L 68.84375 -40.609375 L 48 17.28125 L 41.765625 15.03125 L 59.015625 -32.875 L 34.546875 2.375 L 28.765625 0.296875 L 32.390625 -42.453125 Z M 15.140625 5.453125 "/></g></g></g><g fill="#ff1616" fill-opacity="1"><g transform="translate(562.866821, 184.007024)"><g><path d="M 32.21875 18.984375 L 8.15625 4.8125 L 39.390625 -48.203125 L 62.625 -34.515625 L 59.734375 -29.609375 L 42.203125 -39.9375 L 31.15625 -21.1875 L 45.4375 -12.78125 L 42.546875 -7.890625 L 28.265625 -16.296875 L 16.734375 3.28125 L 35.09375 14.09375 Z M 32.21875 18.984375 "/></g></g></g><g fill="#ff1616" fill-opacity="1"><g transform="translate(598.421104, 204.692605)"><g><path d="M 12.375 10.296875 L 7.28125 6.0625 L 46.65625 -41.21875 L 57.640625 -32.078125 C 61.421875 -28.929688 63.546875 -25.640625 64.015625 -22.203125 C 64.484375 -18.773438 63.382812 -15.46875 60.71875 -12.28125 L 52.234375 -2.078125 C 48.117188 2.859375 43.359375 4.234375 37.953125 2.046875 L 32.375 26.953125 L 26.765625 22.28125 L 32.1875 -1.515625 L 26.296875 -6.421875 Z M 47.140625 -6.3125 L 55.625 -16.515625 C 57.15625 -18.347656 57.785156 -20.234375 57.515625 -22.171875 C 57.253906 -24.117188 56.082031 -25.960938 54 -27.703125 L 48.109375 -32.609375 L 29.9375 -10.796875 L 35.828125 -5.890625 C 40.140625 -2.296875 43.910156 -2.4375 47.140625 -6.3125 Z M 47.140625 -6.3125 "/></g></g></g></svg>