<svg xmlns="http://www.w3.org/2000/svg" xmlns:xlink="http://www.w3.org/1999/xlink" width="800" zoomAndPan="magnify" viewBox="0 0 600 187.499995" height="250" preserveAspectRatio="xMidYMid meet" version="1.0"><defs><g/><clipPath id="id1"><path d="M 0.796875 0 L 599.199219 0 L 599.199219 187 L 0.796875 187 Z M 0.796875 0 " clip-rule="nonzero"/></clipPath><clipPath id="id2"><path d="M 20 58 L 84 58 L 84 122 L 20 122 Z M 20 58 " clip-rule="nonzero"/></clipPath><clipPath id="id3"><path d="M 69.832031 48.84375 L 93.222656 107.605469 L 34.460938 130.996094 L 11.070312 72.234375 Z M 69.832031 48.84375 " clip-rule="nonzero"/></clipPath><clipPath id="id4"><path d="M 23.621094 59.695312 L 86.835938 59.695312 L 86.835938 122.914062 L 23.621094 122.914062 Z M 23.621094 59.695312 " clip-rule="nonzero"/></clipPath><clipPath id="id5"><path d="M 27.195312 63.269531 L 82.972656 63.269531 L 82.972656 119.046875 L 27.195312 119.046875 Z M 27.195312 63.269531 " clip-rule="nonzero"/></clipPath></defs><g clip-path="url(#id1)"><path fill="#ffffff" d="M 0.796875 0 L 599.203125 0 L 599.203125 194.480469 L 0.796875 194.480469 Z M 0.796875 0 " fill-opacity="1" fill-rule="nonzero"/><path fill="#ffffff" d="M 0.796875 0 L 599.203125 0 L 599.203125 187 L 0.796875 187 Z M 0.796875 0 " fill-opacity="1" fill-rule="nonzero"/><path fill="#ffffff" d="M 0.796875 0 L 599.203125 0 L 599.203125 187 L 0.796875 187 Z M 0.796875 0 " fill-opacity="1" fill-rule="nonzero"/><path fill="#ffffff" d="M 0.796875 0 L 599.203125 0 L 599.203125 187 L 0.796875 187 Z M 0.796875 0 " fill-opacity="1" fill-rule="nonzero"/></g><g clip-path="url(#id2)"><g clip-path="url(#id3)"><path fill="#fc164b" d="M 31.269531 66.179688 C 31.632812 65.847656 32.035156 65.535156 32.410156 65.230469 L 83.6875 87.304688 C 83.722656 87.789062 83.769531 88.296875 83.78125 88.789062 Z M 82.917969 82.648438 C 82.796875 82.109375 82.636719 81.554688 82.488281 81.023438 L 37.761719 61.765625 C 37.273438 62.019531 36.757812 62.289062 36.28125 62.570312 Z M 82.957031 97.085938 C 83.058594 96.640625 83.164062 96.199219 83.238281 95.765625 L 26.535156 71.351562 C 26.273438 71.703125 26.019531 72.082031 25.769531 72.460938 Z M 83.742188 91.65625 C 83.769531 91.179688 83.796875 90.703125 83.796875 90.238281 L 30.203125 67.164062 C 29.863281 67.484375 29.539062 67.828125 29.210938 68.175781 Z M 83.445312 94.410156 C 83.507812 93.953125 83.574219 93.492188 83.613281 93.042969 L 28.21875 69.191406 C 27.917969 69.527344 27.628906 69.890625 27.339844 70.253906 Z M 74.371094 67.414062 C 73.308594 66.378906 72.175781 65.402344 70.984375 64.511719 L 57.660156 58.777344 C 56.183594 58.496094 54.695312 58.34375 53.226562 58.308594 Z M 81.277344 77.597656 L 41.082031 60.289062 C 40.492188 60.523438 39.929688 60.746094 39.351562 61.007812 L 81.933594 79.320312 C 81.738281 78.746094 81.503906 78.160156 81.277344 77.597656 Z M 63.988281 119.242188 L 22.707031 101.46875 C 22.941406 102.058594 23.1875 102.671875 23.472656 103.242188 L 62.175781 119.902344 C 62.773438 119.695312 63.402344 119.476562 63.988281 119.242188 Z M 82.21875 99.675781 C 82.359375 99.246094 82.5 98.820312 82.613281 98.402344 L 25.050781 73.617188 C 24.824219 73.984375 24.609375 74.382812 24.394531 74.777344 Z M 80.4375 75.792969 C 80.117188 75.144531 79.78125 74.535156 79.40625 73.90625 L 45.046875 59.113281 C 44.335938 59.273438 43.660156 59.449219 42.972656 59.660156 Z M 78.152344 71.925781 C 77.644531 71.195312 77.113281 70.476562 76.523438 69.78125 L 50.015625 58.34375 C 49.117188 58.425781 48.242188 58.492188 47.339844 58.636719 Z M 83.507812 85.765625 C 83.421875 85.242188 83.347656 84.742188 83.261719 84.21875 L 34.90625 63.398438 C 34.46875 63.695312 34.054688 63.984375 33.617188 64.285156 Z M 58.019531 121 C 58.769531 120.855469 59.480469 120.695312 60.210938 120.5 L 24.390625 105.078125 C 24.75 105.742188 25.132812 106.394531 25.535156 107.011719 Z M 65.65625 118.519531 C 66.179688 118.277344 66.695312 118.011719 67.207031 117.746094 L 21.609375 98.089844 C 21.769531 98.648438 21.929688 99.203125 22.117188 99.75 Z M 68.636719 116.898438 C 69.089844 116.625 69.527344 116.324219 69.964844 116.027344 L 20.925781 94.890625 C 21.011719 95.414062 21.09375 95.9375 21.207031 96.453125 Z M 81.3125 102.144531 C 81.488281 101.734375 81.640625 101.332031 81.816406 100.921875 L 23.804688 75.941406 C 23.617188 76.328125 23.4375 76.738281 23.261719 77.152344 Z M 41.890625 119.820312 C 44.191406 120.613281 46.5 121.117188 48.832031 121.367188 L 31.578125 113.941406 C 33.363281 115.460938 35.320312 116.792969 37.472656 117.921875 Z M 71.21875 115.125 C 71.621094 114.808594 71.996094 114.503906 72.398438 114.191406 L 20.597656 91.886719 C 20.644531 92.394531 20.683594 92.878906 20.730469 93.386719 Z M 52.566406 121.558594 C 53.550781 121.539062 54.527344 121.492188 55.503906 121.378906 L 26.984375 109.101562 C 27.578125 109.886719 28.214844 110.628906 28.875 111.355469 Z M 78.851562 106.875 C 79.078125 106.507812 79.332031 106.128906 79.546875 105.734375 L 21.859375 80.871094 C 21.71875 81.300781 21.617188 81.746094 21.503906 82.160156 Z M 73.503906 113.222656 C 73.867188 112.894531 74.203125 112.574219 74.53125 112.226562 L 20.523438 88.972656 C 20.496094 89.449219 20.507812 89.941406 20.503906 90.40625 Z M 80.191406 104.546875 C 80.402344 104.148438 80.59375 103.765625 80.769531 103.355469 L 22.71875 78.359375 C 22.542969 78.769531 22.402344 79.199219 22.25 79.601562 Z M 77.308594 109.074219 C 77.570312 108.71875 77.859375 108.355469 78.113281 107.976562 L 21.1875 83.464844 C 21.082031 83.910156 21.007812 84.34375 20.941406 84.804688 Z M 75.523438 111.210938 C 75.824219 110.875 76.148438 110.527344 76.441406 110.164062 L 20.746094 86.183594 C 20.683594 86.644531 20.644531 87.09375 20.617188 87.570312 Z M 75.523438 111.210938 " fill-opacity="1" fill-rule="nonzero"/></g></g><g clip-path="url(#id4)"><path fill="#fc164b" d="M 55.230469 59.695312 C 37.773438 59.695312 23.621094 73.847656 23.621094 91.304688 C 23.621094 108.761719 37.773438 122.914062 55.230469 122.914062 C 72.6875 122.914062 86.835938 108.761719 86.835938 91.304688 C 86.835938 73.847656 72.6875 59.695312 55.230469 59.695312 " fill-opacity="1" fill-rule="nonzero"/></g><g clip-path="url(#id5)"><path fill="#ffffff" d="M 55.082031 119.046875 C 39.710938 119.046875 27.195312 106.53125 27.195312 91.160156 C 27.195312 75.785156 39.710938 63.269531 55.082031 63.269531 C 70.457031 63.269531 82.972656 75.785156 82.972656 91.160156 C 82.972656 106.53125 70.457031 119.046875 55.082031 119.046875 Z M 55.082031 63.679688 C 39.929688 63.679688 27.605469 76.003906 27.605469 91.160156 C 27.605469 106.3125 39.929688 118.636719 55.082031 118.636719 C 70.238281 118.636719 82.558594 106.3125 82.558594 91.160156 C 82.558594 76.003906 70.238281 63.679688 55.082031 63.679688 Z M 55.082031 63.679688 " fill-opacity="1" fill-rule="nonzero"/></g><g fill="#ff1616" fill-opacity="1"><g transform="translate(98.054658, 109.125145)"><g><path d="M 4.074219 -1.105469 C 4.074219 -0.351562 4.425781 0 5.179688 0 L 7.292969 0 C 8.046875 0 8.398438 -0.351562 8.398438 -1.105469 L 8.398438 -14.082031 L 17.851562 -14.082031 C 24.339844 -14.082031 29.316406 -19.460938 29.316406 -25.644531 C 29.316406 -31.980469 24.289062 -37.3125 17.699219 -37.3125 L 5.230469 -37.3125 C 4.476562 -37.3125 4.074219 -36.910156 4.074219 -36.105469 Z M 24.992188 -25.695312 C 24.992188 -21.773438 21.671875 -18.355469 17.699219 -18.355469 L 8.398438 -18.355469 L 8.398438 -33.039062 L 17.699219 -33.039062 C 21.773438 -33.039062 24.992188 -29.570312 24.992188 -25.695312 Z M 24.992188 -25.695312 "/></g></g></g><g fill="#ff1616" fill-opacity="1"><g transform="translate(127.673333, 109.125145)"><g><path d="M 8.144531 -23.585938 C 8.046875 -24.1875 7.695312 -24.691406 6.988281 -24.691406 L 5.179688 -24.691406 C 4.574219 -24.691406 4.074219 -24.238281 4.074219 -23.585938 L 4.074219 -1.105469 C 4.074219 -0.351562 4.476562 0 5.230469 0 L 7.292969 0 C 7.996094 0 8.398438 -0.351562 8.398438 -1.105469 L 8.398438 -14.179688 C 8.398438 -17.25 10.460938 -20.769531 13.476562 -20.769531 C 14.382812 -20.71875 15.539062 -20.367188 16.191406 -19.964844 C 16.292969 -19.914062 16.492188 -19.710938 16.796875 -19.710938 C 16.996094 -19.710938 17.25 -19.863281 17.449219 -20.214844 L 18.707031 -22.578125 C 18.757812 -22.730469 18.808594 -22.828125 18.808594 -22.980469 C 18.808594 -23.585938 16.292969 -25.09375 14.082031 -25.09375 C 10.960938 -25.09375 9.253906 -23.28125 8.398438 -21.722656 Z M 8.144531 -23.585938 "/></g></g></g><g fill="#ff1616" fill-opacity="1"><g transform="translate(144.820987, 109.125145)"><g><path d="M 2.210938 -12.269531 C 2.210938 -5.128906 7.945312 0.601562 15.085938 0.601562 C 22.226562 0.601562 28.007812 -5.128906 28.007812 -12.269531 C 28.007812 -19.410156 22.226562 -25.195312 15.085938 -25.195312 C 7.945312 -25.195312 2.210938 -19.410156 2.210938 -12.269531 Z M 6.285156 -12.269531 C 6.285156 -17.097656 10.257812 -21.171875 15.085938 -21.171875 C 19.914062 -21.171875 23.9375 -17.097656 23.9375 -12.269531 C 23.9375 -7.441406 19.914062 -3.417969 15.085938 -3.417969 C 10.257812 -3.417969 6.285156 -7.441406 6.285156 -12.269531 Z M 6.285156 -12.269531 "/></g></g></g><g fill="#ff1616" fill-opacity="1"><g transform="translate(173.484221, 109.125145)"><g><path d="M 21.222656 -0.703125 C 21.222656 3.570312 17.148438 6.136719 13.425781 6.136719 C 11.867188 6.136719 10.109375 5.53125 8.851562 4.675781 C 8.699219 4.574219 8.449219 4.476562 8.296875 4.476562 C 7.894531 4.476562 7.742188 4.574219 7.59375 4.777344 L 6.183594 7.191406 C 6.136719 7.242188 5.933594 7.59375 5.933594 7.742188 C 5.933594 8.046875 6.085938 8.144531 6.539062 8.398438 C 8.5 9.65625 10.660156 10.308594 13.476562 10.308594 C 20.367188 10.308594 25.644531 6.136719 25.644531 -2.363281 L 25.644531 -23.332031 C 25.644531 -24.136719 24.941406 -24.589844 24.1875 -24.589844 L 22.578125 -24.589844 C 21.574219 -24.589844 21.222656 -24.085938 21.222656 -23.332031 L 21.222656 -21.269531 C 19.710938 -23.382812 17.097656 -25.144531 13.726562 -25.144531 C 7.191406 -25.144531 2.011719 -19.410156 2.011719 -12.269531 C 2.011719 -5.179688 6.890625 0.554688 13.726562 0.554688 C 16.796875 0.554688 19.660156 -1.660156 21.222656 -3.722656 Z M 6.285156 -12.269531 C 6.285156 -16.945312 9.65625 -20.867188 13.726562 -20.867188 C 17.851562 -20.867188 21.222656 -16.796875 21.222656 -12.117188 C 21.222656 -7.441406 17.652344 -3.671875 13.726562 -3.671875 C 9.65625 -3.671875 6.285156 -7.492188 6.285156 -12.269531 Z M 6.285156 -12.269531 "/></g></g></g><g fill="#ff1616" fill-opacity="1"><g transform="translate(201.443444, 109.125145)"><g><path d="M 8.144531 -23.585938 C 8.046875 -24.1875 7.695312 -24.691406 6.988281 -24.691406 L 5.179688 -24.691406 C 4.574219 -24.691406 4.074219 -24.238281 4.074219 -23.585938 L 4.074219 -1.105469 C 4.074219 -0.351562 4.476562 0 5.230469 0 L 7.292969 0 C 7.996094 0 8.398438 -0.351562 8.398438 -1.105469 L 8.398438 -14.179688 C 8.398438 -17.25 10.460938 -20.769531 13.476562 -20.769531 C 14.382812 -20.71875 15.539062 -20.367188 16.191406 -19.964844 C 16.292969 -19.914062 16.492188 -19.710938 16.796875 -19.710938 C 16.996094 -19.710938 17.25 -19.863281 17.449219 -20.214844 L 18.707031 -22.578125 C 18.757812 -22.730469 18.808594 -22.828125 18.808594 -22.980469 C 18.808594 -23.585938 16.292969 -25.09375 14.082031 -25.09375 C 10.960938 -25.09375 9.253906 -23.28125 8.398438 -21.722656 Z M 8.144531 -23.585938 "/></g></g></g><g fill="#ff1616" fill-opacity="1"><g transform="translate(218.591096, 109.125145)"><g><path d="M 14.082031 0.601562 C 17.199219 0.601562 19.8125 -0.703125 22.074219 -2.210938 C 22.378906 -2.414062 22.878906 -2.765625 22.929688 -3.21875 C 22.929688 -3.371094 22.878906 -3.519531 22.730469 -3.671875 L 21.320312 -5.78125 C 21.171875 -5.984375 20.96875 -6.085938 20.769531 -6.085938 C 20.417969 -6.085938 20.0625 -5.933594 19.863281 -5.734375 C 18.253906 -4.375 16.089844 -3.621094 14.082031 -3.621094 C 10.359375 -3.621094 7.242188 -6.386719 6.636719 -10.410156 L 22.074219 -10.410156 C 23.886719 -10.410156 25.34375 -10.710938 25.34375 -12.722656 L 25.34375 -13.324219 C 25.34375 -19.863281 20.214844 -25.195312 14.082031 -25.195312 C 7.492188 -25.195312 2.210938 -19.410156 2.210938 -12.269531 C 2.210938 -5.128906 7.492188 0.601562 14.082031 0.601562 Z M 6.839844 -14.128906 C 7.695312 -17.902344 10.511719 -20.96875 13.980469 -20.96875 C 17.347656 -20.96875 20.417969 -17.902344 21.070312 -14.128906 Z M 6.839844 -14.128906 "/></g></g></g><g fill="#ff1616" fill-opacity="1"><g transform="translate(243.331987, 109.125145)"><g><path d="M 1.960938 -5.027344 C 2.96875 -1.40625 6.890625 0.453125 10.511719 0.453125 C 15.6875 0.453125 19.460938 -2.3125 19.460938 -6.789062 C 19.460938 -10.8125 16.191406 -13.425781 10.863281 -14.785156 C 8.949219 -15.285156 6.738281 -16.140625 6.738281 -18.203125 C 6.738281 -19.8125 8.398438 -21.371094 10.8125 -21.371094 C 12.621094 -21.371094 13.929688 -20.214844 14.882812 -18.90625 C 15.238281 -18.457031 15.539062 -17.953125 15.890625 -17.953125 C 15.992188 -17.953125 16.140625 -18.003906 16.242188 -18.101562 L 18.304688 -19.5625 C 18.65625 -19.8125 18.503906 -20.164062 18.355469 -20.417969 C 16.644531 -23.433594 14.484375 -25.292969 10.761719 -25.292969 C 5.984375 -25.292969 2.714844 -22.328125 2.714844 -18.203125 C 2.714844 -14.332031 5.632812 -11.867188 10.058594 -10.710938 C 12.824219 -9.957031 15.238281 -9 15.238281 -6.789062 C 15.238281 -4.777344 12.773438 -3.519531 10.511719 -3.519531 C 9.203125 -3.519531 6.636719 -4.222656 5.882812 -6.285156 C 5.78125 -6.6875 5.429688 -7.089844 5.027344 -7.089844 C 4.929688 -7.089844 4.828125 -7.089844 4.726562 -7.039062 L 2.210938 -6.035156 C 1.808594 -5.882812 1.808594 -5.332031 1.960938 -5.027344 Z M 1.960938 -5.027344 "/></g></g></g><g fill="#ff1616" fill-opacity="1"><g transform="translate(262.692231, 109.125145)"><g><path d="M 1.960938 -5.027344 C 2.96875 -1.40625 6.890625 0.453125 10.511719 0.453125 C 15.6875 0.453125 19.460938 -2.3125 19.460938 -6.789062 C 19.460938 -10.8125 16.191406 -13.425781 10.863281 -14.785156 C 8.949219 -15.285156 6.738281 -16.140625 6.738281 -18.203125 C 6.738281 -19.8125 8.398438 -21.371094 10.8125 -21.371094 C 12.621094 -21.371094 13.929688 -20.214844 14.882812 -18.90625 C 15.238281 -18.457031 15.539062 -17.953125 15.890625 -17.953125 C 15.992188 -17.953125 16.140625 -18.003906 16.242188 -18.101562 L 18.304688 -19.5625 C 18.65625 -19.8125 18.503906 -20.164062 18.355469 -20.417969 C 16.644531 -23.433594 14.484375 -25.292969 10.761719 -25.292969 C 5.984375 -25.292969 2.714844 -22.328125 2.714844 -18.203125 C 2.714844 -14.332031 5.632812 -11.867188 10.058594 -10.710938 C 12.824219 -9.957031 15.238281 -9 15.238281 -6.789062 C 15.238281 -4.777344 12.773438 -3.519531 10.511719 -3.519531 C 9.203125 -3.519531 6.636719 -4.222656 5.882812 -6.285156 C 5.78125 -6.6875 5.429688 -7.089844 5.027344 -7.089844 C 4.929688 -7.089844 4.828125 -7.089844 4.726562 -7.039062 L 2.210938 -6.035156 C 1.808594 -5.882812 1.808594 -5.332031 1.960938 -5.027344 Z M 1.960938 -5.027344 "/></g></g></g><g fill="#ff1616" fill-opacity="1"><g transform="translate(282.052485, 109.125145)"><g><path d="M 8.398438 -23.585938 C 8.398438 -24.238281 7.945312 -24.691406 7.292969 -24.691406 L 5.179688 -24.691406 C 4.476562 -24.691406 4.074219 -24.289062 4.074219 -23.585938 L 4.074219 -1.105469 C 4.074219 -0.351562 4.425781 0 5.179688 0 L 7.292969 0 C 7.996094 0 8.398438 -0.351562 8.398438 -1.105469 Z M 3.066406 -31.628906 C 3.066406 -29.921875 4.476562 -28.511719 6.234375 -28.511719 C 8.046875 -28.511719 9.402344 -29.921875 9.402344 -31.628906 C 9.402344 -33.390625 8.046875 -34.796875 6.234375 -34.796875 C 4.476562 -34.796875 3.066406 -33.390625 3.066406 -31.628906 Z M 3.066406 -31.628906 "/></g></g></g><g fill="#ff1616" fill-opacity="1"><g transform="translate(292.512053, 109.125145)"><g><path d="M 5.582031 -23.785156 C 5.332031 -24.339844 4.929688 -24.691406 4.273438 -24.691406 L 2.113281 -24.691406 C 1.40625 -24.691406 1.054688 -24.4375 1.054688 -23.886719 C 1.054688 -23.382812 1.257812 -22.980469 1.308594 -22.828125 L 10.410156 -0.957031 C 10.660156 -0.25 10.8125 0 11.714844 0 L 13.175781 0 C 13.777344 0 14.179688 -0.152344 14.53125 -0.957031 L 23.683594 -23.132812 C 23.734375 -23.183594 23.886719 -23.683594 23.886719 -23.886719 C 23.886719 -24.4375 23.535156 -24.691406 22.828125 -24.691406 L 20.71875 -24.691406 C 20.0625 -24.691406 19.613281 -24.390625 19.359375 -23.835938 L 12.472656 -6.035156 Z M 5.582031 -23.785156 "/></g></g></g><g fill="#ff1616" fill-opacity="1"><g transform="translate(315.191205, 109.125145)"><g><path d="M 21.625 -1.257812 C 21.625 -0.503906 21.976562 0 22.878906 0 L 24.488281 0 C 25.195312 0 25.796875 -0.453125 25.796875 -1.105469 L 25.796875 -23.433594 C 25.796875 -24.238281 25.195312 -24.691406 24.488281 -24.691406 L 23.03125 -24.691406 C 22.175781 -24.691406 21.875 -24.238281 21.824219 -23.433594 L 21.625 -20.917969 C 20.113281 -23.082031 18.152344 -25.09375 14.03125 -25.09375 C 6.941406 -25.09375 2.011719 -19.410156 2.011719 -12.269531 C 2.011719 -5.128906 6.988281 0.503906 14.03125 0.503906 C 18.101562 0.503906 20.113281 -1.359375 21.625 -3.621094 Z M 6.183594 -12.269531 C 6.183594 -16.945312 9.203125 -20.867188 14.03125 -20.867188 C 18.957031 -20.867188 21.625 -16.894531 21.625 -12.167969 C 21.625 -7.34375 18.855469 -3.671875 14.03125 -3.671875 C 9.304688 -3.671875 6.183594 -7.542969 6.183594 -12.269531 Z M 6.183594 -12.269531 "/></g></g></g><g fill="#ff1616" fill-opacity="1"><g transform="translate(343.049863, 109.125145)"><g/></g></g><g fill="#ff1616" fill-opacity="1"><g transform="translate(356.778052, 109.125145)"><g><path d="M 14.082031 0.601562 C 17.199219 0.601562 19.8125 -0.703125 22.074219 -2.210938 C 22.378906 -2.414062 22.878906 -2.765625 22.929688 -3.21875 C 22.929688 -3.371094 22.878906 -3.519531 22.730469 -3.671875 L 21.320312 -5.78125 C 21.171875 -5.984375 20.96875 -6.085938 20.769531 -6.085938 C 20.417969 -6.085938 20.0625 -5.933594 19.863281 -5.734375 C 18.253906 -4.375 16.089844 -3.621094 14.082031 -3.621094 C 10.359375 -3.621094 7.242188 -6.386719 6.636719 -10.410156 L 22.074219 -10.410156 C 23.886719 -10.410156 25.34375 -10.710938 25.34375 -12.722656 L 25.34375 -13.324219 C 25.34375 -19.863281 20.214844 -25.195312 14.082031 -25.195312 C 7.492188 -25.195312 2.210938 -19.410156 2.210938 -12.269531 C 2.210938 -5.128906 7.492188 0.601562 14.082031 0.601562 Z M 6.839844 -14.128906 C 7.695312 -17.902344 10.511719 -20.96875 13.980469 -20.96875 C 17.347656 -20.96875 20.417969 -17.902344 21.070312 -14.128906 Z M 6.839844 -14.128906 "/></g></g></g><g fill="#ff1616" fill-opacity="1"><g transform="translate(381.518943, 109.125145)"><g><path d="M 4.074219 -1.105469 C 4.074219 -0.351562 4.476562 0 5.179688 0 L 7.242188 0 C 7.996094 0 8.398438 -0.351562 8.398438 -1.105469 L 8.398438 -9.050781 L 11.617188 -12.371094 L 20.917969 -0.804688 C 21.320312 -0.25 21.875 0 22.328125 0 L 25.796875 0 C 26.351562 0 26.652344 -0.25 26.652344 -0.554688 C 26.652344 -0.703125 26.449219 -1.105469 26.199219 -1.359375 C 26.199219 -1.359375 26.199219 -1.359375 14.632812 -15.4375 L 22.328125 -23.28125 C 22.628906 -23.683594 22.730469 -23.734375 22.730469 -24.136719 C 22.730469 -24.4375 22.476562 -24.691406 21.976562 -24.691406 L 18.457031 -24.691406 C 17.800781 -24.691406 17.5 -24.390625 17.097656 -23.988281 L 8.398438 -14.882812 L 8.398438 -36.207031 C 8.398438 -36.859375 7.84375 -37.3125 7.242188 -37.3125 L 5.179688 -37.3125 C 4.476562 -37.3125 4.074219 -36.808594 4.074219 -36.207031 Z M 4.074219 -1.105469 "/></g></g></g><g fill="#ff1616" fill-opacity="1"><g transform="translate(405.807256, 109.125145)"><g><path d="M 2.210938 -12.269531 C 2.210938 -5.128906 7.945312 0.601562 15.085938 0.601562 C 22.226562 0.601562 28.007812 -5.128906 28.007812 -12.269531 C 28.007812 -19.410156 22.226562 -25.195312 15.085938 -25.195312 C 7.945312 -25.195312 2.210938 -19.410156 2.210938 -12.269531 Z M 6.285156 -12.269531 C 6.285156 -17.097656 10.257812 -21.171875 15.085938 -21.171875 C 19.914062 -21.171875 23.9375 -17.097656 23.9375 -12.269531 C 23.9375 -7.441406 19.914062 -3.417969 15.085938 -3.417969 C 10.257812 -3.417969 6.285156 -7.441406 6.285156 -12.269531 Z M 6.285156 -12.269531 "/></g></g></g><g fill="#ff1616" fill-opacity="1"><g transform="translate(434.470494, 109.125145)"><g><path d="M 8.246094 -23.484375 C 8.195312 -24.1875 7.742188 -24.589844 7.089844 -24.589844 L 5.179688 -24.589844 C 4.574219 -24.589844 4.074219 -24.1875 4.074219 -23.484375 L 4.074219 -1.105469 C 4.074219 -0.402344 4.476562 0 5.230469 0 L 7.292969 0 C 7.996094 0 8.398438 -0.351562 8.398438 -1.105469 L 8.398438 -15.488281 C 8.398438 -18.203125 12.421875 -20.820312 15.738281 -20.820312 C 19.5625 -20.820312 21.925781 -18.003906 21.925781 -14.632812 L 21.925781 -1.207031 C 21.925781 -0.402344 22.125 0 23.03125 0 L 25.09375 0 C 25.746094 0 26.300781 -0.453125 26.300781 -1.257812 L 26.300781 -14.632812 C 26.300781 -20.464844 22.628906 -25.144531 16.847656 -25.144531 C 13.828125 -25.144531 9.957031 -23.132812 8.398438 -21.222656 Z M 8.246094 -23.484375 "/></g></g></g><g fill="#ff1616" fill-opacity="1"><g transform="translate(462.17828, 109.125145)"><g><path d="M 2.210938 -12.269531 C 2.210938 -5.128906 7.945312 0.601562 15.085938 0.601562 C 22.226562 0.601562 28.007812 -5.128906 28.007812 -12.269531 C 28.007812 -19.410156 22.226562 -25.195312 15.085938 -25.195312 C 7.945312 -25.195312 2.210938 -19.410156 2.210938 -12.269531 Z M 6.285156 -12.269531 C 6.285156 -17.097656 10.257812 -21.171875 15.085938 -21.171875 C 19.914062 -21.171875 23.9375 -17.097656 23.9375 -12.269531 C 23.9375 -7.441406 19.914062 -3.417969 15.085938 -3.417969 C 10.257812 -3.417969 6.285156 -7.441406 6.285156 -12.269531 Z M 6.285156 -12.269531 "/></g></g></g><g fill="#ff1616" fill-opacity="1"><g transform="translate(490.841519, 109.125145)"><g><path d="M 8.246094 -23.484375 C 8.195312 -24.136719 7.792969 -24.589844 7.089844 -24.589844 L 5.179688 -24.589844 C 4.527344 -24.589844 4.074219 -24.1875 4.074219 -23.484375 L 4.074219 -1.105469 C 4.074219 -0.402344 4.476562 0 5.230469 0 L 7.292969 0 C 7.996094 0 8.398438 -0.351562 8.398438 -1.105469 L 8.398438 -14.835938 C 8.398438 -18.152344 11.363281 -20.820312 14.632812 -20.820312 C 18.304688 -20.820312 19.964844 -18.152344 19.964844 -14.785156 L 19.964844 -1.207031 C 19.964844 -0.402344 20.214844 0 21.070312 0 L 23.082031 0 C 23.835938 0 24.289062 -0.453125 24.289062 -1.257812 L 24.289062 -14.734375 C 24.289062 -18.203125 27.507812 -20.820312 30.523438 -20.820312 C 34.296875 -20.820312 35.804688 -18.152344 35.804688 -14.785156 L 35.804688 -1.207031 C 35.804688 -0.402344 36.207031 0 37.109375 0 L 38.921875 0 C 39.625 0 40.179688 -0.453125 40.179688 -1.257812 L 40.179688 -14.734375 C 40.179688 -20.316406 36.910156 -25.144531 31.175781 -25.144531 C 27.457031 -25.144531 24.539062 -22.878906 22.980469 -19.914062 C 21.574219 -22.679688 19.359375 -25.042969 15.4375 -25.042969 C 12.320312 -25.042969 9.753906 -23.183594 8.398438 -21.269531 Z M 8.246094 -23.484375 "/></g></g></g><g fill="#ff1616" fill-opacity="1"><g transform="translate(532.730052, 109.125145)"><g><path d="M 14.082031 0.601562 C 17.199219 0.601562 19.8125 -0.703125 22.074219 -2.210938 C 22.378906 -2.414062 22.878906 -2.765625 22.929688 -3.21875 C 22.929688 -3.371094 22.878906 -3.519531 22.730469 -3.671875 L 21.320312 -5.78125 C 21.171875 -5.984375 20.96875 -6.085938 20.769531 -6.085938 C 20.417969 -6.085938 20.0625 -5.933594 19.863281 -5.734375 C 18.253906 -4.375 16.089844 -3.621094 14.082031 -3.621094 C 10.359375 -3.621094 7.242188 -6.386719 6.636719 -10.410156 L 22.074219 -10.410156 C 23.886719 -10.410156 25.34375 -10.710938 25.34375 -12.722656 L 25.34375 -13.324219 C 25.34375 -19.863281 20.214844 -25.195312 14.082031 -25.195312 C 7.492188 -25.195312 2.210938 -19.410156 2.210938 -12.269531 C 2.210938 -5.128906 7.492188 0.601562 14.082031 0.601562 Z M 6.839844 -14.128906 C 7.695312 -17.902344 10.511719 -20.96875 13.980469 -20.96875 C 17.347656 -20.96875 20.417969 -17.902344 21.070312 -14.128906 Z M 6.839844 -14.128906 "/></g></g></g><g fill="#ff1616" fill-opacity="1"><g transform="translate(557.470962, 109.125145)"><g><path d="M 8.144531 -23.585938 C 8.046875 -24.1875 7.695312 -24.691406 6.988281 -24.691406 L 5.179688 -24.691406 C 4.574219 -24.691406 4.074219 -24.238281 4.074219 -23.585938 L 4.074219 -1.105469 C 4.074219 -0.351562 4.476562 0 5.230469 0 L 7.292969 0 C 7.996094 0 8.398438 -0.351562 8.398438 -1.105469 L 8.398438 -14.179688 C 8.398438 -17.25 10.460938 -20.769531 13.476562 -20.769531 C 14.382812 -20.71875 15.539062 -20.367188 16.191406 -19.964844 C 16.292969 -19.914062 16.492188 -19.710938 16.796875 -19.710938 C 16.996094 -19.710938 17.25 -19.863281 17.449219 -20.214844 L 18.707031 -22.578125 C 18.757812 -22.730469 18.808594 -22.828125 18.808594 -22.980469 C 18.808594 -23.585938 16.292969 -25.09375 14.082031 -25.09375 C 10.960938 -25.09375 9.253906 -23.28125 8.398438 -21.722656 Z M 8.144531 -23.585938 "/></g></g></g></svg>